<svg id="Layer_1" enable-background="new 0 0 512 512" height="512" viewBox="0 0 512 512" width="512" xmlns="http://www.w3.org/2000/svg"><g id="Layer_2_00000067933665979779892230000007631614328801616271_"><g id="Social_Icon"><path id="Heart" d="m461.2 306.9c-30.9 37.3-205.2 176.9-205.2 176.9s-174.3-139.6-205.2-176.9c-34.7-41.8-50.8-81.5-50.8-124.7 0-42.2 14.4-81 40.6-109.4 26.6-28.7 62.9-44.6 102.4-44.6 29.6 0 56.6 9.4 80.4 27.8 12.4 9.7 23.4 21.1 32.5 34 9.2-12.8 20.1-24.3 32.5-34 23.8-18.5 50.9-27.8 80.5-27.8 39.6 0 75.9 15.9 102.4 44.6 26.2 28.4 40.7 67.2 40.7 109.4 0 43.2-16.1 82.9-50.8 124.7z" fill="#ff2e39"/></g></g></svg>