<svg xmlns="http://www.w3.org/2000/svg" xmlns:xlink="http://www.w3.org/1999/xlink" width="100" height="100" viewBox="0 0 100 100">
  <defs>
    <clipPath id="clip-path">
      <rect id="사각형_142" data-name="사각형 142" width="100" height="100" transform="translate(826 592)" fill="#fff" stroke="#707070" stroke-width="1"/>
    </clipPath>
  </defs>
  <g id="마스크_그룹_11" data-name="마스크 그룹 11" transform="translate(-826 -592)" clip-path="url(#clip-path)">
    <g id="cafe_9620474" transform="translate(823.663 589.675)">
      <g id="그룹_17" data-name="그룹 17">
        <g id="XMLID_1_">
          <g id="그룹_16" data-name="그룹 16">
            <path id="패스_286" data-name="패스 286" d="M98.837,97.837a4.491,4.491,0,0,1-4.488,4.488H10.326a4.488,4.488,0,1,1,0-8.977H94.349A4.491,4.491,0,0,1,98.837,97.837Z"/>
            <path id="패스_287" data-name="패스 287" d="M20.186,33.93v6.3a6.322,6.322,0,0,1-6.3,6.3H13.3a6.293,6.293,0,0,1-6.233-6.3V36.047A2.124,2.124,0,0,1,9.186,33.93Z"/>
            <path id="패스_288" data-name="패스 288" d="M35.651,33.93v6.3a6.307,6.307,0,0,1-6.3,6.3h-.512a6.307,6.307,0,0,1-6.3-6.3v-6.3Z"/>
            <path id="패스_289" data-name="패스 289" d="M51.14,33.93v6.3a6.307,6.307,0,0,1-6.3,6.3h-.512a6.307,6.307,0,0,1-6.3-6.3v-6.3Z"/>
            <path id="패스_290" data-name="패스 290" d="M97.581,36.047v4.186a6.3,6.3,0,0,1-6.256,6.3h-.558a6.307,6.307,0,0,1-6.3-6.3v-6.3h11a2.124,2.124,0,0,1,2.116,2.116Z"/>
            <path id="패스_291" data-name="패스 291" d="M82.116,33.93v6.3a6.307,6.307,0,0,1-6.3,6.3H75.3a6.307,6.307,0,0,1-6.3-6.3v-6.3Z"/>
            <path id="패스_292" data-name="패스 292" d="M66.628,33.93v6.3a6.322,6.322,0,0,1-6.3,6.3h-.512a6.307,6.307,0,0,1-6.3-6.3v-6.3Z"/>
            <path id="패스_293" data-name="패스 293" d="M51.767,56.953v27.14a.466.466,0,0,1-.465.465H47.209V56.488h4.07a.487.487,0,0,1,.488.465Z"/>
            <path id="패스_294" data-name="패스 294" d="M44.837,56.488V84.581H23.721a.466.466,0,0,1-.465-.465V56.953a.466.466,0,0,1,.465-.465Zm-3.907,7.4a1.184,1.184,0,1,0-1.674-1.674L28,73.512a1.184,1.184,0,1,0,1.674,1.674Zm-7.651-.14a1.184,1.184,0,0,0-1.628-1.721L28.3,65.233a1.2,1.2,0,0,0-.047,1.674,1.217,1.217,0,0,0,.86.372,1.2,1.2,0,0,0,.814-.326Z"/>
            <path id="패스_295" data-name="패스 295" d="M71.419,57.535a9.24,9.24,0,0,0-9.233,9.233V90.977H80.674V66.767a9.26,9.26,0,0,0-9.256-9.233Zm6.4,20.581a1.186,1.186,0,1,1-2.372,0V70.372a1.186,1.186,0,0,1,2.372,0Z"/>
            <path id="패스_296" data-name="패스 296" d="M83.3,44.6a8.667,8.667,0,0,1-7.488,4.3H75.3a8.667,8.667,0,0,1-7.488-4.3,8.667,8.667,0,0,1-7.488,4.3h-.512a8.667,8.667,0,0,1-7.488-4.3,8.667,8.667,0,0,1-7.488,4.3h-.512a8.667,8.667,0,0,1-7.488-4.3,8.667,8.667,0,0,1-7.488,4.3h-.512a8.667,8.667,0,0,1-7.488-4.3,8.705,8.705,0,0,1-6.86,4.279V90.977H59.814V66.767a11.6,11.6,0,0,1,23.209,0V90.977H90.14V48.884A8.665,8.665,0,0,1,83.3,44.6ZM54.14,84.093A2.849,2.849,0,0,1,51.3,86.93H23.744a2.849,2.849,0,0,1-2.837-2.837V56.953a2.849,2.849,0,0,1,2.837-2.837H51.3a2.849,2.849,0,0,1,2.837,2.837Z"/>
            <path id="패스_297" data-name="패스 297" d="M50,8.93,50.791,11H49.233Z"/>
            <path id="패스_298" data-name="패스 298" d="M15.535,2.326V19.558h73.4V2.326ZM43,14.837A6.325,6.325,0,1,1,38.3,4.279a6.256,6.256,0,0,1,4.209,1.6A1.186,1.186,0,0,1,40.93,7.651a3.9,3.9,0,0,0-2.628-1,3.953,3.953,0,1,0,2.93,6.6,1.181,1.181,0,0,1,1.674-.093A1.2,1.2,0,0,1,43,14.837Zm11.349,2.372a1.317,1.317,0,0,1-.419.07,1.207,1.207,0,0,1-1.116-.767l-1.163-3.14H48.372l-1.163,3.14a1.192,1.192,0,0,1-2.233-.837l1.442-3.86c.023-.047.023-.07.047-.116l2.442-6.581a1.162,1.162,0,0,1,1.116-.767,1.207,1.207,0,0,1,1.116.767l2.465,6.6L55.07,15.7a1.2,1.2,0,0,1-.721,1.512ZM62.6,9.256a1.186,1.186,0,0,1,0,2.372H59.093v4.814a1.186,1.186,0,1,1-2.372,0V5.535a1.191,1.191,0,0,1,1.186-1.186h4.7a1.186,1.186,0,0,1,0,2.372H59.093V9.256Zm8.674.535a1.186,1.186,0,1,1,0,2.372H67.767v3.07h3.512a1.186,1.186,0,1,1,0,2.372h-4.7A1.191,1.191,0,0,1,65.4,16.419V5.535a1.191,1.191,0,0,1,1.186-1.186h4.7a1.186,1.186,0,1,1,0,2.372H67.767v3.07Z"/>
            <path id="패스_299" data-name="패스 299" d="M28.744,21.93H75.93v9.628H28.744Z"/>
          </g>
        </g>
      </g>
    </g>
  </g>
</svg>
