<svg xmlns="http://www.w3.org/2000/svg" width="100" height="100" viewBox="0 0 100 100">
  <path id="패스_347" data-name="패스 347" d="M6492.973-48.816v-13.43c0-2.857-1.34-5.2-2.979-5.2h-15.4c-1.639,0-2.979,2.336-2.979,5.2v17.488h-20.335V-83.446q-9.317-12.817-18.723-33.786a3.224,3.224,0,0,1-.234-2.032c.213-1.057.876-1.61,1.48-1.238l.131.081a24.427,24.427,0,0,0,7.094,2.007,27.04,27.04,0,0,0,7.834-.076,11.866,11.866,0,0,0,9.377-6.806c1.869-3.863,2.581-9.553,2.2-17.262h0a3.578,3.578,0,0,1,.043-.743c.181-1.07.827-1.685,1.44-1.372a44.377,44.377,0,0,0,20.375,5.056,44.387,44.387,0,0,0,20.306-5.02.717.717,0,0,1,.5-.115c.639.1,1.112,1.079,1.057,2.194-.384,7.709.329,13.4,2.2,17.262a11.867,11.867,0,0,0,9.375,6.806,27.054,27.054,0,0,0,7.836.076,24.843,24.843,0,0,0,6.452-1.719l.006,0c.208-.117.413-.24.616-.366v0a.724.724,0,0,1,.881.078,1.525,1.525,0,0,1,.511.679,3.117,3.117,0,0,1-.24,2.829l-.173.221q-9.313,18.879-18.3,31.164v40.77h-20.335v-4.058Zm15.135-34.311v34.311h2.874V-90.751c-9.353,6.892-18.71,10.3-28.218,10.168-9.539-.134-19.21-3.837-29.164-11.166v42.934h2.875V-84.122C6474.32-72,6491.229-71.791,6508.108-83.127Zm17.961-31.655c-.774.167-1.556.3-2.339.408a28.353,28.353,0,0,1-8.225-.089l-.053-.011-.051-.009-.053-.008-.051-.009-.027-.005-.024,0-.051-.011-.1-.019-.051-.009h0l-.048-.009-.051-.011-.051-.011-.05-.011-.03,0-.021-.006-.051-.011-.049-.011-.051-.011-.05-.011h0l-.046-.008-.05-.011-.05-.014-.049-.011-.03-.005-.02-.006-.05-.011-.049-.011-.05-.011-.05-.014h-.008l-.042-.011-.048-.014-.049-.011-.05-.014-.032-.009-.016,0-.049-.014-.048-.011-.048-.014-.05-.014-.01,0-.038-.011-.048-.014-.048-.014-.048-.011-.036-.011-.013,0-.048-.017-.048-.014-.048-.014-.046-.014-.011,0-.037-.011-.048-.014-.046-.017-.048-.014-.035-.011-.011-.005-.047-.014-.048-.017-.047-.014-.046-.017-.015,0-.032-.013-.046-.014-.046-.017-.046-.017-.093-.033-.045-.014-.046-.02-.047-.017-.014-.005-.03-.011a13.9,13.9,0,0,1-7.8-7.393c-2.034-4.206-2.963-9.928-2.84-17.328a45.518,45.518,0,0,1-19.445,4.449,45.479,45.479,0,0,1-19.445-4.449c.124,7.4-.806,13.122-2.84,17.328a13.926,13.926,0,0,1-7.8,7.393l-.03.011-.016.005-.045.017-.046.02-.047.014-.091.033-.047.017-.046.017-.046.014-.034.013-.013,0-.046.017-.048.014-.047.017-.046.014-.011.005-.037.011-.046.014-.047.017-.048.014-.037.011-.012,0-.048.014-.046.014-.048.014-.048.017-.014,0-.034.011-.048.011-.048.014-.048.014-.04.011-.008,0-.049.014-.048.014-.049.011-.048.014-.016,0-.034.009-.048.014-.05.011-.049.014-.042.011h-.006l-.049.014-.05.011-.05.011-.05.011-.019.006-.03.005-.05.011-.049.014-.051.011-.044.008H6450l-.049.011-.051.011-.05.011-.051.011-.021.006-.031,0-.05.011-.051.011-.051.011-.048.009h0l-.051.009-.1.019-.052.011-.025,0-.025.005-.053.009-.052.008-.051.009-.053.011a28.35,28.35,0,0,1-8.225.089c-.639-.084-1.277-.193-1.911-.321l.6.651c15.388,16.72,29.873,24.92,44,24.825C6497.836-89.318,6511.826-97.921,6526.069-114.782Z" transform="translate(-6432.251 144.757)" fill-rule="evenodd"/>
</svg>
