<svg xmlns="http://www.w3.org/2000/svg" xmlns:xlink="http://www.w3.org/1999/xlink" width="100" height="100" viewBox="0 0 100 100">
  <defs>
    <clipPath id="clip-path">
      <rect id="사각형_143" data-name="사각형 143" width="100" height="100" transform="translate(966 527)" fill="#fff" stroke="#707070" stroke-width="1"/>
    </clipPath>
  </defs>
  <g id="마스크_그룹_14" data-name="마스크 그룹 14" transform="translate(-966 -527)" clip-path="url(#clip-path)">
    <g id="hotel_233432" transform="translate(966 527)">
      <g id="그룹_19" data-name="그룹 19">
        <g id="그룹_18" data-name="그룹 18">
          <path id="패스_348" data-name="패스 348" d="M86.486,91.892H85.038a9.454,9.454,0,0,0-6.659-10.417V67.567H70.27V51.351h8.108V43.243H70.27V27.027h8.108V10.811H75.841V8.168H71.006V.06H68.078V10.811H65.961V8.168h-4.67V6.487h3.874V4.114H61.291v-1.5h4.535V.06H58.363V10.811h-4.88v-8.2h3.063V.06H47.478V2.613h3.078v8.2H33.589V.06H30.661V3.994H27.087V.06H24.159V10.811H21.622V27.027H29.73V43.243H21.622v8.108H29.73V67.567H21.622V81.475a9.454,9.454,0,0,0-6.659,10.417H13.514a4.054,4.054,0,0,0,0,8.108h20.27V86.487H28.378l9.459-10.811H62.162l9.459,10.811H66.216V100h20.27a4.054,4.054,0,0,0,0-8.108ZM30.66,10.811H27.087V6.546H30.66ZM45.946,67.567H37.838V51.351h8.108Zm0-24.324H37.838V27.027h8.108ZM62.162,67.567H54.054V51.351h8.108Zm0-24.324H54.054V27.027h8.108Z"/>
        </g>
      </g>
      <g id="그룹_21" data-name="그룹 21">
        <g id="그룹_20" data-name="그룹 20">
          <rect id="사각형_144" data-name="사각형 144" width="16.216" height="13.513" transform="translate(41.892 86.486)"/>
        </g>
      </g>
      <g id="그룹_23" data-name="그룹 23">
        <g id="그룹_22" data-name="그룹 22">
          <path id="패스_349" data-name="패스 349" d="M46.029,3.438A5.528,5.528,0,0,0,44.94,1.7a5.4,5.4,0,0,0-1.7-1.231A5.132,5.132,0,0,0,41.036,0a5.329,5.329,0,0,0-2.185.443,5.523,5.523,0,0,0-1.727,1.187,5.376,5.376,0,0,0-1.134,1.719,5.235,5.235,0,0,0-.405,2.027,5.371,5.371,0,0,0,.39,2.012,5.536,5.536,0,0,0,1.1,1.734,5.454,5.454,0,0,0,1.7,1.223,5.127,5.127,0,0,0,2.207.466,5.249,5.249,0,0,0,2.185-.451A5.537,5.537,0,0,0,44.88,9.167a5.464,5.464,0,0,0,1.126-1.712,5.179,5.179,0,0,0,.405-2.02A5.423,5.423,0,0,0,46.029,3.438ZM43.3,6.411a2.786,2.786,0,0,1-.435.908,2.216,2.216,0,0,1-.758.646,2.343,2.343,0,0,1-2.943-.623,2.719,2.719,0,0,1-.451-.894,3.623,3.623,0,0,1-.15-1.043A3.741,3.741,0,0,1,38.7,4.377a2.7,2.7,0,0,1,.443-.9,2.236,2.236,0,0,1,.758-.638,2.316,2.316,0,0,1,1.088-.24,2.348,2.348,0,0,1,1.074.233,2.321,2.321,0,0,1,.766.616,2.573,2.573,0,0,1,.458.886,3.634,3.634,0,0,1,.15,1.044A3.847,3.847,0,0,1,43.3,6.411Z"/>
        </g>
      </g>
    </g>
  </g>
</svg>
