<svg id="Layer_1" data-name="Layer 1" xmlns="http://www.w3.org/2000/svg" viewBox="0 0 73.15 20.95"><title>intro_tx3</title><path d="M199.62,298.79c.52,0,1,.06,1.48.06s1,0,1.48,0,1.1,0,1.71-.07,1.33-.08,2.15-.14l.28,0,.3,0,.28,0h.29a.75.75,0,0,1,.66.25,1.13,1.13,0,0,1,.21.54.88.88,0,0,1-.23.73,1,1,0,0,1-.57.28.55.55,0,0,1-.18,0h-1l-2,.06-1.71.06c-.56,0-1.14.05-1.73.06H199a1.37,1.37,0,0,1-.7-.17,1.32,1.32,0,0,1-.5-.43,1.1,1.1,0,0,1-.23-.55.76.76,0,0,1,.11-.53.41.41,0,0,1,.34-.21,2.26,2.26,0,0,1,.52,0l.55.1A2.72,2.72,0,0,0,199.62,298.79Zm3.63,9.46a5.55,5.55,0,0,1-1.45-.19,4,4,0,0,1-1.34-.63,3,3,0,0,1-1-1.06,3.26,3.26,0,0,1-.36-1.58,3.2,3.2,0,0,1,.34-1.48,3.44,3.44,0,0,1,.89-1.11,4.14,4.14,0,0,1,1.31-.66,5.17,5.17,0,0,1,1.54-.23,4.42,4.42,0,0,1,3,1,3.29,3.29,0,0,1,0,4.93A4.26,4.26,0,0,1,203.25,308.25Zm-3.51-12.5a.45.45,0,0,1,.4-.12,1.37,1.37,0,0,1,.44.09,8.08,8.08,0,0,0,1.85.57,10.56,10.56,0,0,0,3,0,1.08,1.08,0,0,1,.66.09.64.64,0,0,1,.3.37.72.72,0,0,1-.19.6,2.19,2.19,0,0,1-.48.41,2,2,0,0,1-.77.23,7.65,7.65,0,0,1-.89.06c-.53,0-1.15,0-1.87-.09a4.6,4.6,0,0,1-1.87-.51,1.39,1.39,0,0,1-.69-.83A.77.77,0,0,1,199.74,295.75Zm3.46,10.82a2.55,2.55,0,0,0,1.68-.48,1.58,1.58,0,0,0,.58-1.27,1.72,1.72,0,0,0-.56-1.37,2.48,2.48,0,0,0-1.68-.48,2.13,2.13,0,0,0-1.65.56,1.88,1.88,0,0,0-.51,1.29,1.68,1.68,0,0,0,.53,1.22A2.2,2.2,0,0,0,203.2,306.57Zm-1.73,4.73a1.1,1.1,0,0,1-.09-.66.77.77,0,0,1,.5-.59.91.91,0,0,1,.64-.07.72.72,0,0,1,.51.31,10.16,10.16,0,0,1,.55,1.58,14.37,14.37,0,0,1,.41,1.95,27.5,27.5,0,0,0,4.29.24c1.46,0,2.79-.1,4-.19a.76.76,0,0,1,.64.2.9.9,0,0,1,0,1.21.83.83,0,0,1-.52.27,30.9,30.9,0,0,1-4,.26,35.91,35.91,0,0,1-4.06-.22,4.08,4.08,0,0,1-.63-.1,2.67,2.67,0,0,1-.66-.26,1.94,1.94,0,0,1-.55-.44,1.44,1.44,0,0,1-.32-.73c0-.26-.09-.51-.14-.76s-.1-.48-.17-.71a6.76,6.76,0,0,0-.17-.68C201.6,311.69,201.54,311.49,201.47,311.3Zm8.43-16.2a.8.8,0,0,1,.79-.16,1.6,1.6,0,0,1,.72.42,4.48,4.48,0,0,1,.78,1.21,3.5,3.5,0,0,1,.3,1.41l-.07,3.89c.33,0,.67,0,1,0s.69,0,1.06-.09l.56,0h.57a.84.84,0,0,1,.65.3,1,1,0,0,1,.16.54.88.88,0,0,1-.27.71,1.36,1.36,0,0,1-.61.28h-.17a.74.74,0,0,0-.19-.05l-.28,0h-.44l-1,.05-1.07,0-.07,4.68c0,.24,0,.51-.08.81a6.35,6.35,0,0,1-.14.82,1.94,1.94,0,0,1-.34.69.74.74,0,0,1-.52.3.48.48,0,0,1-.44-.21,1.64,1.64,0,0,1-.26-.58,3.38,3.38,0,0,1-.16-.7c0-.24,0-.45,0-.62l.09-10a6.88,6.88,0,0,0-.06-.84,2.87,2.87,0,0,0-.22-.84c-.08-.15-.16-.3-.24-.47a3.28,3.28,0,0,1-.2-.52,1.22,1.22,0,0,1,0-.5A.73.73,0,0,1,209.9,295.1Z" transform="translate(-197.54 -294.89)"/><path d="M220.24,303.83a10.66,10.66,0,0,0,2.56-.07c.93-.13,2.07-.31,3.42-.55a.57.57,0,0,1,.5.18.83.83,0,0,1,.26.59,1,1,0,0,1-.14.55.71.71,0,0,1-.36.31,9.83,9.83,0,0,1-1.38.35c-.54.1-1.11.19-1.72.25s-1.2.13-1.82.16a12.36,12.36,0,0,1-1.75-.06,1.85,1.85,0,0,1-1.07-.47,1.6,1.6,0,0,1-.44-1.19c0-.29,0-.62,0-1s0-.76-.06-1.15,0-.75-.07-1.09a4.1,4.1,0,0,0-.15-.85c0-.15-.1-.29-.15-.45s-.11-.3-.16-.46a2,2,0,0,1-.09-.45.6.6,0,0,1,.07-.39,1,1,0,0,1,.35-.41,1.21,1.21,0,0,1,.7-.15c.21,0,.42,0,.64,0h1.44l.76,0,.78-.07.82-.1.35,0,.35-.05.36,0,.36,0a1.83,1.83,0,0,1,1,.23.78.78,0,0,1,.39.66.87.87,0,0,1-.3.69,1.38,1.38,0,0,1-1,.27l-1.6.07-1.23.05-1,0-1,.05a19.52,19.52,0,0,1,.3,2.29C220.18,302.38,220.22,303.16,220.24,303.83Zm.38,4.08a.56.56,0,0,1,.44-.25q.3,0,.6,0c.64,0,1.32,0,2.05,0l2.22-.08c.73,0,1.47-.05,2.19-.09l2.06-.13a1.47,1.47,0,0,1,.93.36,1,1,0,0,1,.43.91l0,.69c0,.23,0,.46,0,.68s0,.44,0,.65,0,.4,0,.57a1.12,1.12,0,0,1-.64,1,2.32,2.32,0,0,1-1,.2h-1.79l-1.69,0c-.54,0-1.08,0-1.61.06l-1.56.06.46,1.61h3.67c1.3,0,2.54-.08,3.72-.17a.8.8,0,0,1,1,.79.92.92,0,0,1-.4.77,1.42,1.42,0,0,1-.72.21c-.76,0-1.44,0-2.07,0l-1.77.05-1.62,0c-.52,0-1,0-1.58,0a2.2,2.2,0,0,1-1.3-.34,2.13,2.13,0,0,1-.74-1.14l-.18-.53a5.52,5.52,0,0,0-.18-.53,2.67,2.67,0,0,0-.18-.49c-.07-.17-.14-.33-.22-.49a1,1,0,0,1-.09-1,.83.83,0,0,1,.81-.44c.64,0,1.32,0,2.05,0s1.44,0,2.15-.06l2-.11,1.68-.13,0-1.61-1.82.09c-.64,0-1.3.06-2,.08l-1.95.09c-.65,0-1.25.06-1.79.07a1.46,1.46,0,0,1-.65-.1,1.81,1.81,0,0,1-.53-.35,1.34,1.34,0,0,1-.3-.47A.69.69,0,0,1,220.62,307.91Zm8.48-12.81a.8.8,0,0,1,.79-.16,1.6,1.6,0,0,1,.72.42,4.81,4.81,0,0,1,.78,1.24,3.42,3.42,0,0,1,.3,1.4l-.07,2.14c.33,0,.67,0,1,0s.69-.06,1-.11h1.13a.84.84,0,0,1,.65.3,1,1,0,0,1,.16.54.86.86,0,0,1-.27.72,1.32,1.32,0,0,1-.61.26.56.56,0,0,1-.17,0l-.19,0-.28,0-.44,0-1,.05-1.07,0-.07,2.11c0,.24,0,.51-.08.79a7.36,7.36,0,0,1-.14.84,1.87,1.87,0,0,1-.34.66.68.68,0,0,1-.52.3.41.41,0,0,1-.44-.19,1.87,1.87,0,0,1-.26-.57,3.38,3.38,0,0,1-.16-.7c0-.24,0-.45,0-.62l.09-5.69a7,7,0,0,0-.06-.83,2.85,2.85,0,0,0-.22-.85,5.89,5.89,0,0,1-.42-1A.79.79,0,0,1,229.1,295.1Z" transform="translate(-197.54 -294.89)"/><path d="M243.16,298.67c-.1.36-.2.7-.31,1a9.08,9.08,0,0,1-.39,1,24.58,24.58,0,0,1,2.22,1.92,14.6,14.6,0,0,1,1.72,1.92.61.61,0,0,1,0,.56.9.9,0,0,1-.33.47.73.73,0,0,1-.58.17.9.9,0,0,1-.5-.26c-.5-.52-1-1-1.65-1.55s-1.22-1-1.88-1.5a12,12,0,0,1-1.75,2,10.63,10.63,0,0,1-1.87,1.38,3.48,3.48,0,0,1-.59.21,1,1,0,0,1-.66-.07.53.53,0,0,1-.43-.43.65.65,0,0,1,.31-.65,14.79,14.79,0,0,0,2.77-2.82,10.78,10.78,0,0,0,1.62-2.89c.1-.34.18-.64.24-.91s.12-.52.17-.72a2.58,2.58,0,0,1,.2-.51.55.55,0,0,1,.3-.26.71.71,0,0,1,.59.05,1.3,1.3,0,0,1,.49.45,2,2,0,0,1,.28.67A1.75,1.75,0,0,1,243.16,298.67Zm-3.34,9.24a.56.56,0,0,1,.44-.25q.3,0,.6,0c.64,0,1.32,0,2,0l2.22-.08c.73,0,1.47-.05,2.19-.09l2.06-.13a1.47,1.47,0,0,1,.93.36,1,1,0,0,1,.43.91c0,.23,0,.45,0,.69s0,.46,0,.68,0,.44,0,.65,0,.4,0,.57a1.12,1.12,0,0,1-.64,1,2.32,2.32,0,0,1-1,.2h-1.79l-1.69,0c-.54,0-1.08,0-1.61.06l-1.56.06.46,1.61h3.67c1.3,0,2.54-.08,3.72-.17a.8.8,0,0,1,1,.79.92.92,0,0,1-.4.77,1.42,1.42,0,0,1-.72.21c-.76,0-1.44,0-2.07,0l-1.77.05-1.62,0c-.52,0-1.05,0-1.58,0a2.2,2.2,0,0,1-1.3-.34,2.13,2.13,0,0,1-.74-1.14l-.18-.53a5.52,5.52,0,0,0-.18-.53,2.67,2.67,0,0,0-.18-.49c-.07-.17-.14-.33-.22-.49a1,1,0,0,1-.09-1,.83.83,0,0,1,.81-.44c.64,0,1.32,0,2,0s1.44,0,2.15-.06l2-.11,1.68-.13,0-1.61-1.82.09c-.64,0-1.3.06-2,.08l-1.95.09c-.65,0-1.25.06-1.79.07a1.46,1.46,0,0,1-.65-.1,1.81,1.81,0,0,1-.53-.35,1.34,1.34,0,0,1-.3-.47A.69.69,0,0,1,239.82,307.91Zm8.48-12.81a.8.8,0,0,1,.79-.16,1.6,1.6,0,0,1,.72.42,4.81,4.81,0,0,1,.78,1.24,3.42,3.42,0,0,1,.3,1.4l-.07,2.14c.33,0,.67,0,1,0s.69-.06,1-.11H254a.84.84,0,0,1,.65.3,1,1,0,0,1,.16.54.86.86,0,0,1-.27.72,1.32,1.32,0,0,1-.61.26.56.56,0,0,1-.17,0l-.19,0-.28,0-.44,0-1,.05-1.07,0-.07,2.11c0,.24,0,.51-.08.79a7.36,7.36,0,0,1-.14.84,1.87,1.87,0,0,1-.34.66.68.68,0,0,1-.52.3.41.41,0,0,1-.44-.19,1.87,1.87,0,0,1-.26-.57,3.38,3.38,0,0,1-.16-.7c0-.24,0-.45,0-.62l.09-5.69a7,7,0,0,0-.06-.83,2.85,2.85,0,0,0-.22-.85,5.89,5.89,0,0,1-.42-1A.79.79,0,0,1,248.3,295.1Z" transform="translate(-197.54 -294.89)"/><path d="M256.41,299.78a1,1,0,0,1,.29-.12,2.21,2.21,0,0,1,.39,0,3.37,3.37,0,0,0,.52,0l1.1-.08,1.44-.09,1.59-.15c.52,0,1-.11,1.46-.19l.52,0a1.17,1.17,0,0,1,.51.16,1.6,1.6,0,0,1,.49.48.83.83,0,0,1,.16.6,12.59,12.59,0,0,1-1.08,3,19.59,19.59,0,0,1-1.66,2.76,15.66,15.66,0,0,1-1.88,2.22,7.24,7.24,0,0,1-1.76,1.34,3.48,3.48,0,0,1-.59.21,1,1,0,0,1-.66-.07.58.58,0,0,1-.45-.43c-.05-.23.05-.44.33-.65a17.17,17.17,0,0,0,3.29-3.41,16.73,16.73,0,0,0,2.28-4.53l-1.18.14-1.2.12-1.21.13-1.09.11a1.72,1.72,0,0,1-.75,0,1.87,1.87,0,0,1-.62-.29,1.14,1.14,0,0,1-.39-.46.69.69,0,0,1,0-.53A.39.39,0,0,1,256.41,299.78Zm12.48-4.85a1.5,1.5,0,0,1,.72.41,4.93,4.93,0,0,1,.78,1.23,3.5,3.5,0,0,1,.3,1.41l-.19,14.76c0,.24,0,.51-.08.8a6.52,6.52,0,0,1-.14.83,1.89,1.89,0,0,1-.34.68.68.68,0,0,1-.52.3.41.41,0,0,1-.44-.19,1.87,1.87,0,0,1-.26-.57,3.33,3.33,0,0,1-.16-.71c0-.25,0-.46,0-.64l.09-14.54a6.88,6.88,0,0,0-.06-.84,2.87,2.87,0,0,0-.22-.84c-.08-.15-.16-.3-.24-.47a3.28,3.28,0,0,1-.2-.52,1.22,1.22,0,0,1,0-.5.73.73,0,0,1,.23-.43A.82.82,0,0,1,268.89,294.93Z" transform="translate(-197.54 -294.89)"/></svg>