<svg id="Layer_1" data-name="Layer 1" xmlns="http://www.w3.org/2000/svg" viewBox="0 0 36.09 21.15"><title>intro_tx4</title><path d="M263.36,248.31a.39.39,0,0,1,.17-.21,1,1,0,0,1,.29-.12,2.21,2.21,0,0,1,.39,0,3.37,3.37,0,0,0,.52,0l1.1-.08,1.44-.09,1.59-.15c.52,0,1-.11,1.46-.19l.52,0a1.17,1.17,0,0,1,.51.16,1.6,1.6,0,0,1,.49.48.83.83,0,0,1,.16.6,9.64,9.64,0,0,1-1.08,2.81,14.71,14.71,0,0,1-1.66,2.35,13.74,13.74,0,0,1-1.88,1.8,10.12,10.12,0,0,1-1.76,1.16,3.48,3.48,0,0,1-.59.21,1,1,0,0,1-.66-.07.61.61,0,0,1-.46-.44c-.06-.24,0-.45.34-.64a20.47,20.47,0,0,0,3.32-2.93,12,12,0,0,0,2.25-3.81l-1.18.14q-.6.08-1.2.12l-1.21.13-1.09.11a1.72,1.72,0,0,1-.75,0,1.87,1.87,0,0,1-.62-.29,1.14,1.14,0,0,1-.39-.46A.69.69,0,0,1,263.36,248.31Zm4.58,13.56a3.72,3.72,0,0,1,.39-1.72,3.87,3.87,0,0,1,1.05-1.32,4.5,4.5,0,0,1,1.54-.84,5.81,5.81,0,0,1,1.87-.29,5.73,5.73,0,0,1,1.85.29,4.5,4.5,0,0,1,1.54.84,3.84,3.84,0,0,1,1.06,1.3,4,4,0,0,1,0,3.5,4.23,4.23,0,0,1-1.06,1.32,4.81,4.81,0,0,1-1.54.81,6,6,0,0,1-1.85.29,5.53,5.53,0,0,1-1.87-.26,4.87,4.87,0,0,1-1.54-.84,4.06,4.06,0,0,1-1.05-1.32A3.86,3.86,0,0,1,267.94,261.87Zm2,0a2.33,2.33,0,0,0,.76,1.71,2.86,2.86,0,0,0,2.12.72,3,3,0,0,0,2.11-.73,2.25,2.25,0,0,0,0-3.39,2.91,2.91,0,0,0-2.11-.73,2.94,2.94,0,0,0-2.12.72A2.26,2.26,0,0,0,269.91,261.87Zm5.55-16.77a.8.8,0,0,1,.79-.16,1.6,1.6,0,0,1,.72.42,4.81,4.81,0,0,1,.78,1.24,3.42,3.42,0,0,1,.3,1.4l-.19,7.06c0,.24,0,.5-.08.79a7.36,7.36,0,0,1-.14.84,1.87,1.87,0,0,1-.34.66.74.74,0,0,1-.52.3.42.42,0,0,1-.44-.19,1.82,1.82,0,0,1-.26-.58,3.15,3.15,0,0,1-.16-.69q0-.36,0-.63l0-1.22-2.06.24a1.81,1.81,0,0,1-1.33-.17.89.89,0,0,1-.38-.89.68.68,0,0,1,.27-.51,1,1,0,0,1,.5-.21H274l.37,0h.4l.39,0,.39,0a1.56,1.56,0,0,0,.41-.06l0-1.87-1.87.22a1.81,1.81,0,0,1-1.33-.17.89.89,0,0,1-.38-.89.68.68,0,0,1,.27-.51,1,1,0,0,1,.5-.21h1.07l.37,0h.35l.35,0,.33,0,.36,0v-.36a7,7,0,0,0-.06-.83,2.85,2.85,0,0,0-.22-.85,5.89,5.89,0,0,1-.42-1A.79.79,0,0,1,275.46,245.1Z" transform="translate(-263.32 -244.9)"/><path d="M282.34,257.19c1.22,0,2.46,0,3.71,0s2.52,0,3.78-.07,2.53-.07,3.79-.12l3.8-.14h.26l.29,0,.29,0h.28a.78.78,0,0,1,.66.25,1.13,1.13,0,0,1,.21.54,1,1,0,0,1-.24.75,1.18,1.18,0,0,1-.58.29l-.17,0-.19,0-.3,0h-.44l-1.63.05-1.59.05-1.55,0-1.52,0v4.39a4.18,4.18,0,0,1-.3,1.86.92.92,0,0,1-.73.59.67.67,0,0,1-.73-.47,3.11,3.11,0,0,1-.23-1.31l-.07-5c-1.22.05-2.44.08-3.66.11l-3.78.06a1.27,1.27,0,0,1-.7-.16,1.37,1.37,0,0,1-.48-.44,1.24,1.24,0,0,1-.23-.56.78.78,0,0,1,.11-.52.47.47,0,0,1,.35-.23,1.59,1.59,0,0,1,.49,0l.55.1A2.72,2.72,0,0,0,282.34,257.19Zm2.33-9a.39.39,0,0,1,.17-.21,1.1,1.1,0,0,1,.29-.12,2.21,2.21,0,0,1,.39,0,3.28,3.28,0,0,0,.52,0l1.3-.08,1.84-.09,2-.15a14.58,14.58,0,0,0,1.65-.19l.52,0a1.17,1.17,0,0,1,.51.16,2,2,0,0,1,.54.48.52.52,0,0,1,.11.6,6.52,6.52,0,0,1-1,1.53,16.53,16.53,0,0,1-1.44,1.47c.72.37,1.43.75,2.12,1.14s1.28.78,1.8,1.14a.57.57,0,0,1,.19.5,1.17,1.17,0,0,1-.19.56,1.32,1.32,0,0,1-.47.4.55.55,0,0,1-.52-.06,24.51,24.51,0,0,0-2.35-1.25c-.85-.4-1.64-.74-2.38-1a19.94,19.94,0,0,1-2.36,1.45,16.61,16.61,0,0,1-2.24,1,1.6,1.6,0,0,1-.62.07,1.5,1.5,0,0,1-.61-.19.68.68,0,0,1-.38-.55.57.57,0,0,1,.41-.6,27.43,27.43,0,0,0,4.06-2.21A16.54,16.54,0,0,0,291.9,249c-.39.05-.82.1-1.3.14s-1,.09-1.46.12l-1.48.11-1.21.11a1.72,1.72,0,0,1-.75,0,2,2,0,0,1-.62-.29,1.11,1.11,0,0,1-.38-.46A.7.7,0,0,1,284.67,248.19Z" transform="translate(-263.32 -244.9)"/></svg>