<svg id="Layer_1" data-name="Layer 1" xmlns="http://www.w3.org/2000/svg" viewBox="0 0 36.57 20.95"><title>intro_tx5</title><path d="M275.78,259.44a5.1,5.1,0,0,1-2.58-.92,2.72,2.72,0,0,1-1.1-2.37,2.91,2.91,0,0,1,.36-1.47,3,3,0,0,1,1-1.05,4.51,4.51,0,0,1,1.44-.62,7.27,7.27,0,0,1,1.77-.22,7.94,7.94,0,0,1,1.8.2,4.21,4.21,0,0,1,1.47.6,2.8,2.8,0,0,1,1,1,3,3,0,0,1,.38,1.53,2.72,2.72,0,0,1-1,2.32,4.92,4.92,0,0,1-2.47.95l-.05,2,1.56-.05,1.59-.05c.53,0,1.05,0,1.58-.06l1.59-.08h.55l.29,0h.28a.75.75,0,0,1,.66.25,1.13,1.13,0,0,1,.21.54.92.92,0,0,1-.24.74,1.1,1.1,0,0,1-.58.29l-.17,0-.19,0-.3,0a2.76,2.76,0,0,0-.44,0l-4.05.14-3.87.1-3.88.1c-1.3,0-2.63.06-4,.07a1.19,1.19,0,0,1-.7-.15,1.31,1.31,0,0,1-.48-.45,1.2,1.2,0,0,1-.23-.56.83.83,0,0,1,.11-.54.46.46,0,0,1,.35-.22h.49l.55.11a2.72,2.72,0,0,0,.55.06c1.11,0,2.24,0,3.39,0s2.3,0,3.45-.08Zm-3.44-9.17c1,0,2.21.07,3.56,0s2.83-.09,4.46-.21l.31,0,.39,0,.37,0h.32a.75.75,0,0,1,.66.25,1.13,1.13,0,0,1,.21.54.88.88,0,0,1-.23.73,1,1,0,0,1-.57.28.68.68,0,0,1-.21,0h-1.18l-2.22.06-2.12.06c-.71,0-1.42,0-2.14.06H271.7a1.37,1.37,0,0,1-.7-.17,1.32,1.32,0,0,1-.5-.43,1.1,1.1,0,0,1-.23-.55.76.76,0,0,1,.11-.53.41.41,0,0,1,.34-.21,2.26,2.26,0,0,1,.52,0l.55.1A2.72,2.72,0,0,0,272.34,250.27Zm.84-3a.45.45,0,0,1,.4-.12,1.37,1.37,0,0,1,.44.09,8.08,8.08,0,0,0,1.85.57,10.56,10.56,0,0,0,3,0,1.08,1.08,0,0,1,.66.09.64.64,0,0,1,.3.37.72.72,0,0,1-.19.6,2.19,2.19,0,0,1-.48.41,2,2,0,0,1-.77.23,7.65,7.65,0,0,1-.89.06c-.53,0-1.15,0-1.87-.09a4.6,4.6,0,0,1-1.87-.51,1.39,1.39,0,0,1-.69-.83A.77.77,0,0,1,273.18,247.23Zm3.46,10.58a4.05,4.05,0,0,0,2-.42,1.32,1.32,0,0,0,.72-1.21,1.44,1.44,0,0,0-.7-1.31,4,4,0,0,0-2-.42,3.25,3.25,0,0,0-2,.5,1.55,1.55,0,0,0-.64,1.23,1.34,1.34,0,0,0,.7,1.22A3.8,3.8,0,0,0,276.64,257.81Z" transform="translate(-266.92 -245.9)"/><path d="M290.08,255.17a11,11,0,0,0,2.59-.08c1-.14,1.81-.3,2.55-.47a.57.57,0,0,1,.5.18.83.83,0,0,1,.26.59,1,1,0,0,1-.14.55.71.71,0,0,1-.36.31,11.33,11.33,0,0,1-1.3.35,14.41,14.41,0,0,1-1.53.23,14.8,14.8,0,0,1-1.61.1,9.81,9.81,0,0,1-1.39-.06,1.78,1.78,0,0,1-1.07-.46,1.62,1.62,0,0,1-.44-1.19c0-.29,0-.66,0-1.12s0-.92-.06-1.4,0-.91-.07-1.33a4.61,4.61,0,0,0-.15-1c0-.14-.1-.29-.15-.44s-.11-.31-.16-.47a2,2,0,0,1-.09-.44.63.63,0,0,1,.07-.4,1.18,1.18,0,0,1,.35-.41,1.31,1.31,0,0,1,.7-.14l.64,0c.22,0,.44,0,.68,0l.86-.06,1-.08,1-.11.85-.11a1.43,1.43,0,0,1,1,.2.86.86,0,0,1,.39.69.89.89,0,0,1-.3.7,1.44,1.44,0,0,1-.95.26l-1.9.09-2.15.13c.05.24.09.52.13.85s.08.68.13,1a3.32,3.32,0,0,0,.43,0l.51-.05.6-.06.69-.08a2.07,2.07,0,0,0,.35,0l.35,0,.36,0,.36,0a1.92,1.92,0,0,1,1,.23.78.78,0,0,1,.39.66.89.89,0,0,1-.3.7,1.44,1.44,0,0,1-.95.26l-1.78.1-1.89.09c0,.18,0,.35,0,.52s0,.32,0,.47,0,.3,0,.43S290.08,255.06,290.08,255.17Zm1.82,3.74a.56.56,0,0,1,.44-.25q.3,0,.6,0c.64,0,1.32,0,2.05,0l2.22-.08c.73,0,1.47-.05,2.19-.09l2.06-.13a1.47,1.47,0,0,1,.93.36,1,1,0,0,1,.43.91c0,.23,0,.45,0,.69s0,.46,0,.68,0,.44,0,.65,0,.4,0,.57a1.12,1.12,0,0,1-.64,1,2.32,2.32,0,0,1-1,.2h-1.79l-1.69,0c-.54,0-1.08,0-1.61.06l-1.56.06.46,1.61h3.67c1.3,0,2.54-.08,3.72-.17a.8.8,0,0,1,1,.79.92.92,0,0,1-.4.77,1.45,1.45,0,0,1-.72.21c-.76,0-1.44,0-2.07,0l-1.77.05-1.62,0c-.52,0-1.05,0-1.58,0a2.2,2.2,0,0,1-1.3-.34,2.13,2.13,0,0,1-.74-1.14l-.18-.53a5.52,5.52,0,0,0-.18-.53,2.67,2.67,0,0,0-.18-.49c-.07-.17-.14-.33-.22-.49a1,1,0,0,1-.09-1,.83.83,0,0,1,.81-.44c.64,0,1.32,0,2.05,0s1.44,0,2.15-.06l2-.11,1.68-.13,0-1.61-1.82.09c-.64,0-1.3.06-2,.08l-1.95.09c-.65,0-1.25.06-1.79.07a1.46,1.46,0,0,1-.65-.1,1.81,1.81,0,0,1-.53-.35,1.34,1.34,0,0,1-.3-.47A.69.69,0,0,1,291.9,258.91Zm5.24-12.19a.81.81,0,0,1,.78-.17,1.44,1.44,0,0,1,.7.41,5,5,0,0,1,.76,1.24,3.42,3.42,0,0,1,.3,1.4l-.17,5.09c0,.24,0,.51-.06.8a3.06,3.06,0,0,1-.16.83,2,2,0,0,1-.32.66.65.65,0,0,1-.51.3.39.39,0,0,1-.41-.19,2.08,2.08,0,0,1-.27-.58,5.1,5.1,0,0,1-.13-.7c0-.25,0-.46,0-.64l0-2.38-.41.05a1.74,1.74,0,0,1-1.31-.17.86.86,0,0,1-.37-.88.61.61,0,0,1,.27-.4.9.9,0,0,1,.5-.2h1a2.19,2.19,0,0,0,.36,0l0-.84a7.1,7.1,0,0,0-.07-.84,3.2,3.2,0,0,0-.24-.84,7.79,7.79,0,0,1-.41-1A.84.84,0,0,1,297.14,246.72Zm3.84-.62a.78.78,0,0,1,.78-.16,1.53,1.53,0,0,1,.7.42,4.72,4.72,0,0,1,.75,1.24,3.58,3.58,0,0,1,.29,1.4l-.17,5.88a7.61,7.61,0,0,1-.05.79,4.63,4.63,0,0,1-.17.84,2,2,0,0,1-.33.66.7.7,0,0,1-.53.3.36.36,0,0,1-.4-.19,2.13,2.13,0,0,1-.25-.57c-.05-.23-.08-.46-.11-.7s0-.45,0-.62l.07-5.69a7.3,7.3,0,0,0-.07-.83,3.17,3.17,0,0,0-.24-.85,5.13,5.13,0,0,1-.44-1A.83.83,0,0,1,301,246.1Z" transform="translate(-266.92 -245.9)"/></svg>