<svg id="Layer_1" data-name="Layer 1" xmlns="http://www.w3.org/2000/svg" viewBox="0 0 54.88 49.72"><title>intro_tx1</title><path d="M227.74,285.29c1.22,0,2.46,0,3.71,0l3.78-.07,3.79-.15,3.8-.14h.55l.29,0h.28a.75.75,0,0,1,.66.25,1.13,1.13,0,0,1,.21.54.92.92,0,0,1-.24.74,1.1,1.1,0,0,1-.58.29l-.17,0-.19,0-.3,0a2.76,2.76,0,0,0-.44,0l-4,.14-3.87.1-3.88.1c-1.3,0-2.63.06-4,.07a1.19,1.19,0,0,1-.7-.15,1.31,1.31,0,0,1-.48-.45,1.2,1.2,0,0,1-.23-.56.83.83,0,0,1,.11-.54.46.46,0,0,1,.35-.22h.49l.55.11A2.72,2.72,0,0,0,227.74,285.29Zm9.2-10.66a8.81,8.81,0,0,1-.27,1.07,7.49,7.49,0,0,1-.41,1c.9.56,1.81,1.19,2.74,1.9a14.44,14.44,0,0,1,2.33,2.16.73.73,0,0,1,.08.54.79.79,0,0,1-.27.49.89.89,0,0,1-.56.25.64.64,0,0,1-.5-.2,25.9,25.9,0,0,0-2.34-1.87,19.86,19.86,0,0,0-2.53-1.54,12.17,12.17,0,0,1-2,2.15,10.27,10.27,0,0,1-2.29,1.47,1.42,1.42,0,0,1-.59.17,1.2,1.2,0,0,1-.64-.14.53.53,0,0,1-.4-.45c0-.21.09-.42.38-.61A16.41,16.41,0,0,0,233,278.2a8.08,8.08,0,0,0,1.84-3.37,6.16,6.16,0,0,0,.16-.9c0-.27.05-.5.08-.69a1.71,1.71,0,0,1,.11-.47.57.57,0,0,1,.28-.27.62.62,0,0,1,.62,0,1.81,1.81,0,0,1,.51.52,2.89,2.89,0,0,1,.31.79A2.42,2.42,0,0,1,236.94,274.63Z" transform="translate(-225.69 -269.89)"/><path d="M247.42,281.47c1.22,0,2.46,0,3.71,0s2.52,0,3.78-.07,2.53-.07,3.79-.12l3.8-.14h.26l.29,0,.29,0h.28a.78.78,0,0,1,.66.25,1.13,1.13,0,0,1,.21.54,1,1,0,0,1-.24.75,1.18,1.18,0,0,1-.58.29l-.17,0-.19,0-.3,0h-.44c-.56,0-1.11.06-1.63.07l-1.59,0-1.55.05-1.52,0v5.11A4.18,4.18,0,0,1,256,290a.92.92,0,0,1-.73.59.67.67,0,0,1-.73-.47,3.11,3.11,0,0,1-.23-1.31l-.07-5.73c-1.22.05-2.44.08-3.66.11l-3.78.06a1.27,1.27,0,0,1-.7-.16,1.37,1.37,0,0,1-.48-.44,1.24,1.24,0,0,1-.23-.56.78.78,0,0,1,.11-.52.47.47,0,0,1,.35-.23,1.59,1.59,0,0,1,.49,0l.55.1A2.72,2.72,0,0,0,247.42,281.47Zm2.24-8.3a.36.36,0,0,1,.25-.24,1.94,1.94,0,0,1,.47-.1,5,5,0,0,1,.55,0h.5c1.3,0,2.51-.07,3.64-.12s2.29-.1,3.49-.16a3,3,0,0,1,1.43.21,1.09,1.09,0,0,1,.56,1.15c0,.32,0,.65-.05,1s0,.67-.07,1-.05.76-.09,1.16-.11.86-.17,1.34c-.05.25-.1.52-.16.8a3.24,3.24,0,0,1-.25.78,1.73,1.73,0,0,1-.4.54.65.65,0,0,1-.56.16q-.36-.06-.48-.54a5.91,5.91,0,0,1,0-1.72v-.11a.69.69,0,0,1,0-.13l-1.78.1-1.82.09-1.81.1-1.79.07a1.33,1.33,0,0,1-.57-.08,1.62,1.62,0,0,1-.55-.33,1.19,1.19,0,0,1-.36-.47.68.68,0,0,1,0-.56.36.36,0,0,1,.25-.24,1.94,1.94,0,0,1,.47-.1,5,5,0,0,1,.55,0h.5l1.8,0c.59,0,1.19,0,1.78-.08l1.73-.06,1.72-.08c0-.21,0-.41,0-.61s0-.4,0-.59,0-.38,0-.56a4.63,4.63,0,0,1,0-.54l-1.85.09-1.85.1c-.61.05-1.22.09-1.84.12l-1.86.07a1.33,1.33,0,0,1-.57-.08,1.62,1.62,0,0,1-.55-.33,1.19,1.19,0,0,1-.36-.47A.68.68,0,0,1,249.66,273.17Z" transform="translate(-225.69 -269.89)"/><path d="M269,283.13a7.79,7.79,0,0,0,1.31,0c.49,0,1-.07,1.52-.14s1-.11,1.5-.19.92-.17,1.29-.26a.57.57,0,0,1,.5.18.83.83,0,0,1,.26.59,1,1,0,0,1-.14.55.71.71,0,0,1-.36.31,10.35,10.35,0,0,1-1.37.35c-.54.1-1.11.18-1.7.23s-1.2.1-1.78.1a10.57,10.57,0,0,1-1.46-.06,1.78,1.78,0,0,1-1.07-.46,1.62,1.62,0,0,1-.44-1.19c0-.29,0-.76,0-1.42s0-1.34-.06-2.06,0-1.39-.07-2a6,6,0,0,0-.15-1.27c0-.14-.1-.29-.15-.44s-.11-.31-.16-.47a2,2,0,0,1-.09-.45.61.61,0,0,1,.07-.39,1.09,1.09,0,0,1,.35-.41,1.22,1.22,0,0,1,.7-.14l.64,0a5.19,5.19,0,0,0,.68,0l.93-.06,1.16-.08,1.17-.11.92-.11a1.43,1.43,0,0,1,1,.19.89.89,0,0,1,.39.7.86.86,0,0,1-.3.69,1.38,1.38,0,0,1-.95.27c-.27,0-.59,0-1,0l-1.19,0-1.24.08-1.13.06c.05.26.09.63.13,1.12s.08,1,.13,1.6l.55,0,.65,0,.75-.06.76-.08.35,0,.35-.05.36,0,.36,0a1.93,1.93,0,0,1,1,.22.8.8,0,0,1,.39.66.89.89,0,0,1-.3.7,1.38,1.38,0,0,1-.95.26c-.57,0-1.24.07-2,.1l-2.16.1c0,.62,0,1.19.05,1.71S269,282.86,269,283.13Zm9-13a.82.82,0,0,1,.79-.17,1.5,1.5,0,0,1,.72.41,4.93,4.93,0,0,1,.78,1.23,3.5,3.5,0,0,1,.3,1.41l-.19,14.76c0,.24,0,.51-.08.8a6.52,6.52,0,0,1-.14.83,1.89,1.89,0,0,1-.34.68.68.68,0,0,1-.52.3.41.41,0,0,1-.44-.19,1.87,1.87,0,0,1-.26-.57,3.33,3.33,0,0,1-.16-.71c0-.25,0-.46,0-.64l0-8.66-1.37.17a1.81,1.81,0,0,1-1.33-.17.89.89,0,0,1-.38-.89.7.7,0,0,1,.27-.52,1,1,0,0,1,.5-.2h1.07l.37,0,.21,0h.45l.23,0,0-4.17a6.88,6.88,0,0,0-.06-.84,2.87,2.87,0,0,0-.22-.84c-.08-.15-.16-.3-.24-.47a3.28,3.28,0,0,1-.2-.52,1.22,1.22,0,0,1,0-.5A.73.73,0,0,1,278,270.1Z" transform="translate(-225.69 -269.89)"/><path d="M238.69,309.82a19.69,19.69,0,0,0,2.43-.15,23.52,23.52,0,0,0,2.7-.48.58.58,0,0,1,.51.18.85.85,0,0,1,.26.59,1.1,1.1,0,0,1-.14.55.73.73,0,0,1-.36.32,9.14,9.14,0,0,1-1.24.33q-.71.15-1.47.24c-.53.07-1.06.11-1.6.13a12.38,12.38,0,0,1-1.5,0,1.43,1.43,0,0,1-1-.42,1.88,1.88,0,0,1-.47-1.23c-.07-.58-.16-1.17-.29-1.78a7.63,7.63,0,0,0-.41-1.42.75.75,0,0,1,0-.64.71.71,0,0,1,.74-.39c.59,0,1.1,0,1.54,0l1.22-.09,1-.11.9-.13,0-2.49c-.27,0-.57,0-.91.07l-1,.09-1,.09-.91.06A1.44,1.44,0,0,1,237,303a1.54,1.54,0,0,1-.53-.37,1.37,1.37,0,0,1-.3-.48.71.71,0,0,1,.06-.53.6.6,0,0,1,.45-.25,3.86,3.86,0,0,1,.58,0q.92,0,2.31-.09c.93-.07,1.79-.14,2.59-.22a1.35,1.35,0,0,1,.94.35,1.1,1.1,0,0,1,.43.92c0,.23,0,.51-.05.84s0,.68-.05,1,0,.67,0,1,0,.57-.05.74a1.09,1.09,0,0,1-.53.93,2.44,2.44,0,0,1-.93.22l-.8.06c-.32,0-.64.05-1,.06l-1,.06c-.32,0-.59,0-.8,0Zm1.34,4.56a1.28,1.28,0,0,1-.08-.66.73.73,0,0,1,.49-.59.91.91,0,0,1,.62-.08.72.72,0,0,1,.53.32,3.73,3.73,0,0,1,.35.86c.1.36.2.72.3,1.11s.15.8.2,1.2.11.76.16,1.08a28.24,28.24,0,0,0,4.38.24c1.53,0,2.89-.1,4.09-.19a.76.76,0,0,1,.64.2.94.94,0,0,1,.23.54.85.85,0,0,1-.22.68.86.86,0,0,1-.53.26,31.86,31.86,0,0,1-4.15.26,37,37,0,0,1-4.18-.22,4,4,0,0,1-.63-.09,2.61,2.61,0,0,1-.66-.24,1.85,1.85,0,0,1-.55-.46,1.52,1.52,0,0,1-.32-.74c-.06-.29-.12-.6-.16-.93s-.1-.64-.15-.94-.12-.6-.18-.88A5.19,5.19,0,0,0,240,314.38Zm5.43-14.86a.81.81,0,0,1,.78-.17,1.44,1.44,0,0,1,.7.41,4.72,4.72,0,0,1,.75,1.24,3.58,3.58,0,0,1,.29,1.4l-.2,9.07a8.1,8.1,0,0,1,0,.81,6.81,6.81,0,0,1-.15.83,2.53,2.53,0,0,1-.32.66.72.72,0,0,1-.52.3.4.4,0,0,1-.41-.2,1.87,1.87,0,0,1-.26-.57,4.05,4.05,0,0,1-.13-.71,5.33,5.33,0,0,1,0-.64l.05-5.25-.41.05a1.79,1.79,0,0,1-1.31-.17.89.89,0,0,1-.37-.89.63.63,0,0,1,.27-.4,1,1,0,0,1,.5-.2h1l.36,0,0-1.95a7.1,7.1,0,0,0-.07-.84,3.2,3.2,0,0,0-.24-.84,7.79,7.79,0,0,1-.41-1A.84.84,0,0,1,245.46,299.52Zm3.84-.62a.78.78,0,0,1,.76-.17,1.6,1.6,0,0,1,.72.41,5.16,5.16,0,0,1,.76,1.23,3.5,3.5,0,0,1,.3,1.41L251.65,312c0,.24,0,.51-.07.81a5,5,0,0,1-.17.82,2.11,2.11,0,0,1-.33.69.69.69,0,0,1-.51.3.37.37,0,0,1-.4-.19,2.21,2.21,0,0,1-.25-.58,3.89,3.89,0,0,1-.13-.71,5.3,5.3,0,0,1,0-.63l.07-10a5.46,5.46,0,0,0-.07-.84,4.29,4.29,0,0,0-.21-.84,6.24,6.24,0,0,1-.44-1A.81.81,0,0,1,249.3,298.9Z" transform="translate(-225.69 -269.89)"/><path d="M255.94,314.09c1.22,0,2.46,0,3.71,0l3.78-.07,3.79-.15,3.8-.14h.55l.29,0h.28a.75.75,0,0,1,.66.25,1.13,1.13,0,0,1,.21.54.92.92,0,0,1-.24.74,1.1,1.1,0,0,1-.58.29l-.17,0-.19,0-.3,0a2.76,2.76,0,0,0-.44,0l-4,.14-3.87.1-3.88.1c-1.3,0-2.63.06-4,.07a1.19,1.19,0,0,1-.7-.15,1.31,1.31,0,0,1-.48-.45,1.2,1.2,0,0,1-.23-.56.83.83,0,0,1,.11-.54.46.46,0,0,1,.35-.22h.49l.55.11A2.72,2.72,0,0,0,255.94,314.09Zm4.42-10.58a8.48,8.48,0,0,1,.12.94c0,.38.07.78.12,1.22q1.17,0,2.52-.06c.9,0,1.74-.1,2.52-.16l.35,0,.35-.05.36,0,.36,0a1.81,1.81,0,0,1,1,.24.82.82,0,0,1,.4.67.81.81,0,0,1-.3.67,1.52,1.52,0,0,1-.95.24l-1.67.06-1.62,0-1.59,0-1.62.05c0,.43,0,.83,0,1.18s0,.65,0,.89l1.76,0h1.74l1.74,0c.59,0,1.19-.05,1.81-.1a1.67,1.67,0,0,1,.7.17.65.65,0,0,1,.36.65.9.9,0,0,1-.25.69,1.07,1.07,0,0,1-.76.24c-1.2,0-2.35.08-3.44.09s-2.23,0-3.4,0a5.79,5.79,0,0,1-.72,0,2,2,0,0,1-.67-.24,1.55,1.55,0,0,1-.53-.52,2,2,0,0,1-.24-.95c0-.29,0-.68,0-1.19s0-1-.06-1.54,0-1-.08-1.49a5.52,5.52,0,0,0-.14-1c-.05-.15-.1-.3-.16-.45l-.15-.47a2.73,2.73,0,0,1-.1-.44.79.79,0,0,1,.07-.4,1.26,1.26,0,0,1,.35-.4,1.25,1.25,0,0,1,.71-.15c.21,0,.42,0,.64,0h.68c.82,0,1.68,0,2.6-.06s1.82-.1,2.68-.16l.35,0,.35,0,.36,0,.36,0a1.81,1.81,0,0,1,1,.24.82.82,0,0,1,.4.67.81.81,0,0,1-.3.67,1.52,1.52,0,0,1-.95.24l-1.81.06-1.74,0-1.77.06Z" transform="translate(-225.69 -269.89)"/></svg>