<svg id="Layer_1" data-name="Layer 1" xmlns="http://www.w3.org/2000/svg" viewBox="0 0 43.33 51.57"><title>intro_tx7</title><path d="M264.91,277.1a6.07,6.07,0,0,1,.33-2,4.39,4.39,0,0,1,2.43-2.7,5,5,0,0,1,2-.39,4.72,4.72,0,0,1,2.37.57,4.49,4.49,0,0,1,1.61,1.54h.81l.27,0,.61-.05L276,274l.66-.05c.22,0,.43,0,.64-.07l0-2.18a6.88,6.88,0,0,0-.06-.84,2.87,2.87,0,0,0-.22-.84c-.08-.15-.16-.3-.24-.47a3.28,3.28,0,0,1-.2-.52,1.22,1.22,0,0,1,0-.5.73.73,0,0,1,.23-.43.82.82,0,0,1,.79-.17,1.5,1.5,0,0,1,.72.41,4.93,4.93,0,0,1,.78,1.23,3.5,3.5,0,0,1,.3,1.41l-.19,14.76c0,.24,0,.51-.08.8a6.52,6.52,0,0,1-.14.83,1.89,1.89,0,0,1-.34.68.68.68,0,0,1-.52.3.41.41,0,0,1-.44-.19,1.87,1.87,0,0,1-.26-.57,3.33,3.33,0,0,1-.16-.71c0-.25,0-.46,0-.64l.05-6.79-3.05.34-.23,0h-.18a4.4,4.4,0,0,1-1.64,1.73,4.79,4.79,0,0,1-2.51.65,5.16,5.16,0,0,1-2-.38,4.44,4.44,0,0,1-1.51-1.08,4.64,4.64,0,0,1-.92-1.61A6.15,6.15,0,0,1,264.91,277.1Zm2,0a3.78,3.78,0,0,0,.71,2.33,2.82,2.82,0,0,0,4.19,0,4.11,4.11,0,0,0,0-4.65,2.79,2.79,0,0,0-4.19,0A3.79,3.79,0,0,0,266.88,277.1Zm7.46-1.2c0,.19.06.39.09.6s0,.41,0,.6a3.7,3.7,0,0,1,0,.47c0,.15,0,.29-.05.42h.36l.61-.05.66-.05.64-.05c.22,0,.43,0,.64-.07l0-2.23Z" transform="translate(-261.04 -267.89)"/><path d="M283.9,271.39c1,0,2,.05,3,0s2-.1,2.91-.19l.27,0,.3,0,.29,0H291a.75.75,0,0,1,.66.25,1,1,0,0,1,.2.54.88.88,0,0,1-.22.73,1.31,1.31,0,0,1-.57.3l-.18,0-.2,0h-.77l-1.5.05-1.57,0-1.71.07c-.59,0-1.22,0-1.89,0a1.47,1.47,0,0,1-.7-.16,1.53,1.53,0,0,1-.5-.44,1.1,1.1,0,0,1-.23-.55.81.81,0,0,1,.11-.53.47.47,0,0,1,.35-.22,2.09,2.09,0,0,1,.51,0l.55.12A2.29,2.29,0,0,0,283.9,271.39Zm3.24,8.9a4.43,4.43,0,0,1-2.75-.84,2.76,2.76,0,0,1-1.12-2.35,2.89,2.89,0,0,1,1.05-2.37,4.35,4.35,0,0,1,2.82-.85,3.93,3.93,0,0,1,3,1,3.13,3.13,0,0,1,.95,2.23,3.19,3.19,0,0,1-.91,2.22A4,4,0,0,1,287.14,280.29Zm-3.36-11.69a.51.51,0,0,1,.37-.14,1.42,1.42,0,0,1,.42.05,7.92,7.92,0,0,0,2,.42,10,10,0,0,0,2.44-.09,1,1,0,0,1,.66.06.65.65,0,0,1,.3.4.8.8,0,0,1-.17.61,1.27,1.27,0,0,1-.5.4,3.51,3.51,0,0,1-1.06.25,10.25,10.25,0,0,1-1.37,0,8.93,8.93,0,0,1-1.37-.1,5,5,0,0,1-1.05-.28,1.27,1.27,0,0,1-.76-.76A.77.77,0,0,1,283.78,268.6Zm3.33,10a2.19,2.19,0,0,0,1.55-.44,1.46,1.46,0,0,0,.47-1.09,1.61,1.61,0,0,0-.43-1.08,2,2,0,0,0-1.56-.48,1.91,1.91,0,0,0-1.55.49,1.64,1.64,0,0,0-.4,1.07,1.56,1.56,0,0,0,.42,1.08A2,2,0,0,0,287.11,278.63Zm1,6.36a3.77,3.77,0,0,1,.38-1.71,3.88,3.88,0,0,1,1.06-1.29,5,5,0,0,1,1.54-.78,6.54,6.54,0,0,1,3.72,0,5,5,0,0,1,1.53.78,3.91,3.91,0,0,1,1.07,1.29,3.9,3.9,0,0,1,0,3.44,3.84,3.84,0,0,1-1.07,1.27,4.29,4.29,0,0,1-1.53.8,6.72,6.72,0,0,1-1.85.26,5.75,5.75,0,0,1-1.87-.25,4.43,4.43,0,0,1-1.54-.81,3.51,3.51,0,0,1-1.06-1.26A3.84,3.84,0,0,1,288.12,285Zm2,0a2.17,2.17,0,0,0,.75,1.65,3.06,3.06,0,0,0,2.13.66,3.14,3.14,0,0,0,2.11-.67,2.12,2.12,0,0,0,0-3.27,3.09,3.09,0,0,0-2.11-.67,3.16,3.16,0,0,0-2.13.66A2.1,2.1,0,0,0,290.09,285Zm4.44-10.87.5,0,.43,0,.38,0,.3,0h.2l.2,0,0-2.28a7.3,7.3,0,0,0-.07-.83,3.17,3.17,0,0,0-.24-.85,5.13,5.13,0,0,1-.44-1,.83.83,0,0,1,.2-.93.78.78,0,0,1,.78-.16,1.53,1.53,0,0,1,.7.42,4.72,4.72,0,0,1,.75,1.24,3.58,3.58,0,0,1,.29,1.4l-.17,7.32a7.61,7.61,0,0,1-.05.79,4.63,4.63,0,0,1-.17.84,2,2,0,0,1-.33.66.7.7,0,0,1-.53.3.36.36,0,0,1-.4-.19,2.13,2.13,0,0,1-.25-.57c-.05-.23-.08-.46-.11-.7s0-.45,0-.62l0-3.12h-2l-.05,1.68c0,.24,0,.51-.07.81a6.83,6.83,0,0,1-.14.83,2.29,2.29,0,0,1-.34.66.74.74,0,0,1-.53.3.36.36,0,0,1-.39-.18,2,2,0,0,1-.26-.57,5,5,0,0,1-.13-.71c0-.24,0-.46,0-.63l.07-5.62a7.48,7.48,0,0,0-.07-.83,3.28,3.28,0,0,0-.24-.85,6.16,6.16,0,0,1-.41-1,.85.85,0,0,1,.17-.94.78.78,0,0,1,.78-.15,1.38,1.38,0,0,1,.7.42,5,5,0,0,1,.76,1.23,3.5,3.5,0,0,1,.3,1.41Z" transform="translate(-261.04 -267.89)"/><path d="M264.78,309.5a5,5,0,0,0-.82.91,6.34,6.34,0,0,0-.68,1.22,5.35,5.35,0,0,0-.37,1.29A2.08,2.08,0,0,0,263,314a1.14,1.14,0,0,0,.7.67,2.59,2.59,0,0,0,1.5,0,9,9,0,0,0,2-.77,11.16,11.16,0,0,0,1.9-1.21,7.59,7.59,0,0,0,1.41-1.43,2.35,2.35,0,0,0,.55-1.39,1.61,1.61,0,0,0-.46-1.17,4.92,4.92,0,0,0-1.18-.86,12.61,12.61,0,0,0-1.56-.67c-.57-.2-1.11-.41-1.63-.65a7,7,0,0,1-1.38-.8,2.07,2.07,0,0,1-.79-1.13,3.12,3.12,0,0,1,.2-2.07,9,9,0,0,1,1.38-2.3,12.28,12.28,0,0,1,2.14-2.05,8.49,8.49,0,0,1,2.46-1.33,4.35,4.35,0,0,1,2.32-.17,2.75,2.75,0,0,1,1.79,1.44,7,7,0,0,1,.45-.81c.18-.31.36-.6.54-.89a7.35,7.35,0,0,1,.51-.77,1.92,1.92,0,0,1,.4-.43.81.81,0,0,1,.69,0,3.2,3.2,0,0,1,.9.46,2.39,2.39,0,0,1,.65.66q.22.36-.06.57a8.14,8.14,0,0,0-1,1.17q-.57.75-1.14,1.68c-.38.61-.73,1.25-1.07,1.92a19.32,19.32,0,0,0-.83,1.87,7,7,0,0,0-.4,1.53,1.08,1.08,0,0,0,.18.93.74.74,0,0,1-.63.15,1.68,1.68,0,0,1-.74-.33,2.38,2.38,0,0,1-.61-.72,1.55,1.55,0,0,1-.18-1,6.81,6.81,0,0,1,.34-1.49c.19-.54.37-1.09.54-1.64a11.81,11.81,0,0,0,.4-1.58,2.57,2.57,0,0,0-.08-1.34c-.08-.2-.3-.26-.64-.18a4.73,4.73,0,0,0-1.24.58,13.93,13.93,0,0,0-1.52,1.12,14.45,14.45,0,0,0-1.5,1.42,12.21,12.21,0,0,0-1.19,1.53,3.36,3.36,0,0,0-.56,1.37,1,1,0,0,0,.44,1,6.61,6.61,0,0,0,1.35.77c.55.25,1.15.5,1.81.77a9.18,9.18,0,0,1,1.81,1,4.87,4.87,0,0,1,1.36,1.39,3.36,3.36,0,0,1,.45,2,2.72,2.72,0,0,1-.44,1.3,7.19,7.19,0,0,1-1.12,1.39,12.3,12.3,0,0,1-1.61,1.34,13.87,13.87,0,0,1-1.94,1.17,14.1,14.1,0,0,1-2.11.85,9.64,9.64,0,0,1-2.09.41,6,6,0,0,1-1.46-.07,3.23,3.23,0,0,1-1-.36,2,2,0,0,1-.7-.77,2.45,2.45,0,0,1-.21-1,4.65,4.65,0,0,1,.16-1.19,9,9,0,0,1,.46-1.25,12.92,12.92,0,0,1,1.14-2,10.93,10.93,0,0,1,1.33-1.58.41.41,0,0,1,.29-.08.55.55,0,0,1,.29.09.38.38,0,0,1,.15.21A.15.15,0,0,1,264.78,309.5Z" transform="translate(-261.04 -267.89)"/><path d="M282.49,300.64q1,.19,1.56.36a1.84,1.84,0,0,1,.84.53,3.25,3.25,0,0,1,.31.6c0,.13.07.26.1.38a2.83,2.83,0,0,1,.07.36c0,.24-.07.38-.21.41a2.67,2.67,0,0,0-1.44-.77,10,10,0,0,0-2.48-.31l-.38.58-.38.57a30.28,30.28,0,0,0-2,4.13,32.85,32.85,0,0,0-1.32,4.23,9.75,9.75,0,0,0-.26,3.28c.11.88.48,1.36,1.1,1.42a1.3,1.3,0,0,1-1.06.22,2.31,2.31,0,0,1-1.29-.75,3,3,0,0,1-.84-1.87,7.82,7.82,0,0,1,.13-2.2,20.21,20.21,0,0,1,.76-2.86c.35-1.08.74-2.12,1.18-3.15s.92-2,1.43-3a1,1,0,0,1,.12-.23,1,1,0,0,0,.12-.23l-.3,0a3.24,3.24,0,0,0-.39.07l-.41.09-.39.12a1.11,1.11,0,0,0-.31.14,1.77,1.77,0,0,0-.17.13c-.09.16-.18.21-.26.14a1.08,1.08,0,0,1-.29-.31,1,1,0,0,0-.12-.23,1,1,0,0,1-.12-.23l-.07-.21a.86.86,0,0,0-.05-.15.51.51,0,0,1,.05-.48.45.45,0,0,1,.14-.19l.22-.14a7.93,7.93,0,0,1,1.63-.43l.82-.1.72-.1h.17a.82.82,0,0,0,.21,0,19.24,19.24,0,0,1,1.59-2,.67.67,0,0,1,.69-.12,1.83,1.83,0,0,1,.82.45,1.58,1.58,0,0,1,.48.68q.07.33-.12.45l-.34.42Z" transform="translate(-261.04 -267.89)"/><path d="M287,310.19a.26.26,0,0,1,.28.14.8.8,0,0,1,.08.36.91.91,0,0,1-.08.37c-.06.11-.13.17-.21.17a6.11,6.11,0,0,1-1,0,3.89,3.89,0,0,1-1.13-.24c-.08.16-.18.38-.31.66a7.53,7.53,0,0,1-.47.87,6.27,6.27,0,0,1-.65.86,2.84,2.84,0,0,1-.82.66,1.47,1.47,0,0,1-1,.13,4.31,4.31,0,0,1-1.17-.34,4.12,4.12,0,0,1-1.05-.68,1.76,1.76,0,0,1-.57-.88,3.2,3.2,0,0,1-.07-1.42,7.86,7.86,0,0,1,.38-1.5,7.22,7.22,0,0,1,.64-1.34,4.3,4.3,0,0,1,.7-.93,1.39,1.39,0,0,1,.27-.21,2.75,2.75,0,0,0,.26-.22,8.86,8.86,0,0,1-.12-1,2,2,0,0,1,.24-1,1.2,1.2,0,0,1,.9-.49,3.41,3.41,0,0,1,1.44.11,3.31,3.31,0,0,1,1.38.79,2.43,2.43,0,0,1,.75,1.54,5.68,5.68,0,0,1,0,1.7c-.08.55-.19,1.11-.32,1.68a1.74,1.74,0,0,0,.71.22A2.63,2.63,0,0,0,287,310.19Zm-6.1,2.76a3.68,3.68,0,0,0,1.38-1.29,10.66,10.66,0,0,0,.78-1.59,3.85,3.85,0,0,1-1.29-1.46,2,2,0,0,0-.31.65,12.58,12.58,0,0,0-.38,1.21,9.4,9.4,0,0,0-.25,1.37A2.74,2.74,0,0,0,280.88,313Zm2.52-4.24a3,3,0,0,0,.2-.81,5.78,5.78,0,0,0,0-.93,7.68,7.68,0,0,0-.12-.84,2.37,2.37,0,0,0-.18-.54,1.92,1.92,0,0,0-.35,1.32A5.14,5.14,0,0,0,283.4,308.71Z" transform="translate(-261.04 -267.89)"/><path d="M293,309.11a.47.47,0,0,0,.11.3.38.38,0,0,0,.17.12l.14.08s.05.07,0,.15-.18.2-.42.22a3.33,3.33,0,0,1-.81-.07,4,4,0,0,1-.8-.28q-.37-.18-.42-.42a2.77,2.77,0,0,1-.1-.88,7.37,7.37,0,0,0,0-.94,16,16,0,0,0-2.18,3,14.74,14.74,0,0,0-1.44,3.78.37.37,0,0,1-.4.27,1.57,1.57,0,0,1-.68-.13,2,2,0,0,1-.63-.38.56.56,0,0,1-.21-.51,26.43,26.43,0,0,1,.61-2.71c.26-.94.57-1.87.92-2.79s.73-1.8,1.13-2.63.79-1.58,1.18-2.23a.49.49,0,0,1,.33-.27.91.91,0,0,1,.46,0,1.68,1.68,0,0,1,.78.46.57.57,0,0,1,.06.64c-.21.45-.43.92-.67,1.4s-.49,1.05-.75,1.67c.24-.33.46-.65.65-.93s.33-.48.47-.7l.25-.41c.15-.22.27-.35.36-.37a.87.87,0,0,1,.48.11l1,.38a.93.93,0,0,1,.46.31.87.87,0,0,1,.07.56c0,.24-.07.6-.12,1.1A9,9,0,0,0,293,309.11Z" transform="translate(-261.04 -267.89)"/><path d="M303.9,307.39c.16-.08.28-.08.36,0a.5.5,0,0,1,.11.38,1.55,1.55,0,0,1-.16.57,1.31,1.31,0,0,1-.45.52q-.94.58-1.74,1.14c-.54.38-1.06.78-1.55,1.19a1.9,1.9,0,0,0-.51.6c-.32.66-.69,1.39-1.12,2.19a25.13,25.13,0,0,1-1.42,2.29,15.19,15.19,0,0,1-1.61,2,4.76,4.76,0,0,1-1.65,1.18,1.5,1.5,0,0,1-.87,0,2.54,2.54,0,0,1-1-.48,1.83,1.83,0,0,1-.63-.89,1.49,1.49,0,0,1,.25-1.24,10.35,10.35,0,0,1,1.52-1.83c.64-.63,1.28-1.22,1.93-1.77l1.73-1.44a3.91,3.91,0,0,0,.87-.86c.08-.16.17-.36.28-.61l.3-.77c.09-.26.19-.52.29-.77s.16-.46.21-.63a11.9,11.9,0,0,1-.83,1.21c-.31.41-.62.79-.94,1.16a11.81,11.81,0,0,1-1,1,6.93,6.93,0,0,1-.92.74.93.93,0,0,1-.7.1,2.52,2.52,0,0,1-.82-.29,2,2,0,0,1-.66-.54.77.77,0,0,1-.2-.66,12.38,12.38,0,0,1,.38-1.38c.16-.52.36-1,.58-1.58a14,14,0,0,1,.77-1.55,9.24,9.24,0,0,1,.91-1.32.56.56,0,0,1,.54-.14,2.07,2.07,0,0,1,.72.22,1.36,1.36,0,0,1,.54.45.36.36,0,0,1,0,.5,8.25,8.25,0,0,0-.71,1.06q-.42.72-.75,1.44a9,9,0,0,0-.5,1.25q-.15.52.06.48a1.56,1.56,0,0,0,.63-.51c.27-.3.57-.68.91-1.13s.69-.94,1.06-1.47.71-1.05,1-1.55l.85-1.33c.25-.39.42-.68.52-.85a.49.49,0,0,1,.48-.21,2,2,0,0,1,.69.17,1.9,1.9,0,0,1,.61.4.5.5,0,0,1,.21.45,10.56,10.56,0,0,1-.25,1.18c-.12.45-.26.91-.4,1.38s-.28.92-.41,1.34-.23.78-.31,1.07c.59-.43,1.09-.78,1.49-1S303.45,307.64,303.9,307.39ZM293.08,318c.25-.2.52-.43.81-.71a11.06,11.06,0,0,0,.85-.93c.28-.33.55-.68.81-1a11.22,11.22,0,0,0,.67-1c-.29.27-.61.59-1,.95s-.7.71-1,1.07-.58.68-.8,1A1.52,1.52,0,0,0,293.08,318Z" transform="translate(-261.04 -267.89)"/></svg>