<svg id="Layer_1" data-name="Layer 1" xmlns="http://www.w3.org/2000/svg" viewBox="0 0 54.16 49.26"><title>intro_tx8</title><path d="M279.86,332.79c.52,0,1,.06,1.48.06s1,0,1.48,0,1.1,0,1.71-.07,1.33-.08,2.15-.14l.28,0,.3,0,.28,0h.29a.75.75,0,0,1,.66.25,1.13,1.13,0,0,1,.21.54.88.88,0,0,1-.23.73,1,1,0,0,1-.57.28.55.55,0,0,1-.18,0h-1l-2,.06-1.71.06c-.56,0-1.14.05-1.73.06h-2.06a1.37,1.37,0,0,1-.7-.17,1.32,1.32,0,0,1-.5-.43,1.1,1.1,0,0,1-.23-.55.76.76,0,0,1,.11-.53.41.41,0,0,1,.34-.21,2.26,2.26,0,0,1,.52,0l.55.1A2.72,2.72,0,0,0,279.86,332.79Zm3.63,9.46a5.55,5.55,0,0,1-1.45-.19,4,4,0,0,1-1.34-.63,3,3,0,0,1-1-1.06,3.26,3.26,0,0,1-.36-1.58,3.2,3.2,0,0,1,.34-1.48,3.44,3.44,0,0,1,.89-1.11,4.14,4.14,0,0,1,1.31-.66,5.17,5.17,0,0,1,1.54-.23,4.42,4.42,0,0,1,3,1,3.29,3.29,0,0,1,0,4.93A4.26,4.26,0,0,1,283.49,342.25ZM280,329.75a.45.45,0,0,1,.4-.12,1.37,1.37,0,0,1,.44.09,8.08,8.08,0,0,0,1.85.57,10.56,10.56,0,0,0,3,0,1.08,1.08,0,0,1,.66.09.64.64,0,0,1,.3.37.72.72,0,0,1-.19.6,2.19,2.19,0,0,1-.48.41,2,2,0,0,1-.77.23,7.65,7.65,0,0,1-.89.06c-.53,0-1.15,0-1.87-.09a4.6,4.6,0,0,1-1.87-.51,1.39,1.39,0,0,1-.69-.83A.77.77,0,0,1,280,329.75Zm3.46,10.82a2.55,2.55,0,0,0,1.68-.48,1.58,1.58,0,0,0,.58-1.27,1.72,1.72,0,0,0-.56-1.37,2.48,2.48,0,0,0-1.68-.48,2.13,2.13,0,0,0-1.65.56,1.88,1.88,0,0,0-.51,1.29,1.68,1.68,0,0,0,.53,1.22A2.2,2.2,0,0,0,283.44,340.57Zm-1.73,4.73a1.1,1.1,0,0,1-.09-.66.77.77,0,0,1,.5-.59.91.91,0,0,1,.64-.07.72.72,0,0,1,.51.31,10.16,10.16,0,0,1,.55,1.58,14.37,14.37,0,0,1,.41,1.95,27.5,27.5,0,0,0,4.29.24c1.46,0,2.79-.1,4-.19a.76.76,0,0,1,.64.2.9.9,0,0,1,0,1.21.83.83,0,0,1-.52.27,30.9,30.9,0,0,1-4,.26,35.91,35.91,0,0,1-4.06-.22,4.08,4.08,0,0,1-.63-.1,2.67,2.67,0,0,1-.66-.26,1.94,1.94,0,0,1-.55-.44,1.44,1.44,0,0,1-.32-.73c0-.26-.09-.51-.14-.76s-.1-.48-.17-.71a6.76,6.76,0,0,0-.17-.68C281.84,345.69,281.78,345.49,281.71,345.3Zm8.43-16.2a.8.8,0,0,1,.79-.16,1.6,1.6,0,0,1,.72.42,4.48,4.48,0,0,1,.78,1.21,3.5,3.5,0,0,1,.3,1.41l-.07,3.89c.33,0,.67,0,1,0s.69,0,1.06-.09l.56,0h.57a.84.84,0,0,1,.65.3,1,1,0,0,1,.16.54.88.88,0,0,1-.27.71,1.36,1.36,0,0,1-.61.28h-.17a.74.74,0,0,0-.19-.05l-.28,0h-.44l-1,.05-1.07,0-.07,4.68c0,.24,0,.51-.08.81a6.35,6.35,0,0,1-.14.82,1.94,1.94,0,0,1-.34.69.74.74,0,0,1-.52.3.48.48,0,0,1-.44-.21,1.64,1.64,0,0,1-.26-.58,3.38,3.38,0,0,1-.16-.7c0-.24,0-.45,0-.62l.09-10a6.88,6.88,0,0,0-.06-.84,2.87,2.87,0,0,0-.22-.84c-.08-.15-.16-.3-.24-.47a3.28,3.28,0,0,1-.2-.52,1.22,1.22,0,0,1,0-.5A.73.73,0,0,1,290.14,329.1Z" transform="translate(-269.05 -328.9)"/><path d="M301.94,334a3.68,3.68,0,0,1,1.36-3,6,6,0,0,1,7,0,3.64,3.64,0,0,1,1.38,3,3.71,3.71,0,0,1-1,2.68A4.77,4.77,0,0,1,307.9,338l0,1.58,6.27-.21.26,0a2.85,2.85,0,0,0,.29,0l.29,0h.28a.75.75,0,0,1,.66.25,1.13,1.13,0,0,1,.21.54.89.89,0,0,1-.24.73,1.2,1.2,0,0,1-.58.3l-.17,0-.19,0-.3,0h-.44l-4,.12-3.87.09-3.88.1-4,.07a1.19,1.19,0,0,1-.7-.16,1.28,1.28,0,0,1-.48-.44,1.09,1.09,0,0,1-.23-.54.76.76,0,0,1,.11-.52.49.49,0,0,1,.35-.22,2,2,0,0,1,.49,0l.55.11a2.72,2.72,0,0,0,.55.06c1.12,0,2.26,0,3.41,0s2.31,0,3.48-.08L305.9,338a4.7,4.7,0,0,1-2.88-1.29A3.74,3.74,0,0,1,301.94,334Zm-.88,9.64a.45.45,0,0,1,.3-.21,2.48,2.48,0,0,1,.54-.1l.62,0a5.22,5.22,0,0,0,.58,0l1.39,0c.61,0,1.25-.05,1.94-.06l2-.09,1.68-.06a2.55,2.55,0,0,0,.39,0,1.34,1.34,0,0,1,.4,0,3.14,3.14,0,0,1,.4.08,1.25,1.25,0,0,1,.42.23,1.2,1.2,0,0,1,.31.46,1.29,1.29,0,0,1,.12.48l-.24,3.5a4.12,4.12,0,0,1-.11.75,4.29,4.29,0,0,1-.22.72,2.25,2.25,0,0,1-.35.52.55.55,0,0,1-.45.2c-.28,0-.47-.18-.55-.52a4.55,4.55,0,0,1-.12-1l.05-3.7-7.68.31a1.37,1.37,0,0,1-1.22-.48C301,344.13,300.93,343.83,301.06,343.59Zm2.85-9.64a2.24,2.24,0,0,0,.75,1.75,3,3,0,0,0,2.13.67,3.09,3.09,0,0,0,2.14-.67,2.44,2.44,0,0,0,0-3.51,3.16,3.16,0,0,0-2.13-.67,3.1,3.1,0,0,0-2.16.67A2.31,2.31,0,0,0,303.91,334Z" transform="translate(-269.05 -328.9)"/><path d="M271.1,373.09c1.22,0,2.46,0,3.71,0l3.78-.07,3.79-.15,3.8-.14h.55l.29,0h.28a.75.75,0,0,1,.66.25,1.13,1.13,0,0,1,.21.54.92.92,0,0,1-.24.74,1.1,1.1,0,0,1-.58.29l-.17,0-.19,0-.3,0a2.76,2.76,0,0,0-.44,0l-4.05.14-3.87.1-3.88.1c-1.3,0-2.63.06-4,.07a1.19,1.19,0,0,1-.7-.15,1.31,1.31,0,0,1-.48-.45,1.2,1.2,0,0,1-.23-.56.83.83,0,0,1,.11-.54.46.46,0,0,1,.35-.22H270l.55.11A2.72,2.72,0,0,0,271.1,373.09Zm9.2-10.66a8.81,8.81,0,0,1-.27,1.07,7.49,7.49,0,0,1-.41,1c.9.56,1.81,1.19,2.74,1.9a14.44,14.44,0,0,1,2.33,2.16.73.73,0,0,1,.08.54.79.79,0,0,1-.27.49.89.89,0,0,1-.56.25.64.64,0,0,1-.5-.2,25.9,25.9,0,0,0-2.34-1.87,19.86,19.86,0,0,0-2.53-1.54,12.17,12.17,0,0,1-2,2.15,10.27,10.27,0,0,1-2.29,1.47,1.42,1.42,0,0,1-.59.17,1.2,1.2,0,0,1-.64-.14.53.53,0,0,1-.4-.45c0-.21.09-.42.38-.61a16.41,16.41,0,0,0,3.34-2.84,8.08,8.08,0,0,0,1.84-3.37,6.16,6.16,0,0,0,.16-.9c0-.27.05-.5.08-.69a1.71,1.71,0,0,1,.11-.47.57.57,0,0,1,.28-.27.62.62,0,0,1,.62,0,1.81,1.81,0,0,1,.51.52,2.89,2.89,0,0,1,.31.79A2.42,2.42,0,0,1,280.3,362.43Z" transform="translate(-269.05 -328.9)"/><path d="M292.68,370.93a9.89,9.89,0,0,0,2.47-.08c.88-.14,1.69-.3,2.43-.47a.57.57,0,0,1,.5.18.83.83,0,0,1,.26.59,1,1,0,0,1-.14.55.71.71,0,0,1-.36.31,12.36,12.36,0,0,1-1.26.35,13.69,13.69,0,0,1-1.45.23,13.1,13.1,0,0,1-1.53.1,9.44,9.44,0,0,1-1.35-.06,1.78,1.78,0,0,1-1.07-.46,1.62,1.62,0,0,1-.44-1.19c0-.29,0-.76,0-1.42s0-1.34-.06-2.06,0-1.39-.07-2a6,6,0,0,0-.15-1.27c0-.14-.1-.29-.15-.44s-.11-.31-.16-.47a2,2,0,0,1-.09-.45.61.61,0,0,1,.07-.39,1.09,1.09,0,0,1,.35-.41,1.22,1.22,0,0,1,.7-.14l.64,0a5.19,5.19,0,0,0,.68,0c.48,0,1.06-.08,1.73-.16l1.73-.2a1.43,1.43,0,0,1,1,.19.89.89,0,0,1,.39.7.86.86,0,0,1-.3.69,1.38,1.38,0,0,1-.95.27c-.52,0-1.12,0-1.78.08l-2,.13c.05.26.09.63.13,1.12s.08,1,.13,1.6l.37,0,.45-.05.53-.06.64-.08.35,0,.35-.05.36,0,.36,0a1.93,1.93,0,0,1,1,.22.8.8,0,0,1,.39.66.89.89,0,0,1-.3.7,1.38,1.38,0,0,1-.95.26l-.85.05-.85.05-.86.05-.89,0c0,.62,0,1.19.05,1.71S292.68,370.66,292.68,370.93Zm6.58-10.87a.81.81,0,0,1,.78-.17,1.44,1.44,0,0,1,.7.41,5.16,5.16,0,0,1,.76,1.23,3.5,3.5,0,0,1,.3,1.41l-.19,10.75c0,.24,0,.51-.06.8a4.07,4.07,0,0,1-.16.83,2.25,2.25,0,0,1-.32.66.66.66,0,0,1-.52.3.39.39,0,0,1-.41-.19,1.82,1.82,0,0,1-.26-.58,3.94,3.94,0,0,1-.13-.7,5.33,5.33,0,0,1,0-.64l.05-6.55-.41.05a1.79,1.79,0,0,1-1.31-.17.89.89,0,0,1-.37-.89.63.63,0,0,1,.27-.4,1,1,0,0,1,.5-.2h1.34l0-2.35a7.1,7.1,0,0,0-.07-.84,3.2,3.2,0,0,0-.24-.84,7.39,7.39,0,0,1-.41-1A.82.82,0,0,1,299.26,360.06Zm3.84-2.16a.78.78,0,0,1,.78-.16,1.53,1.53,0,0,1,.7.42,5,5,0,0,1,.76,1.24,3.42,3.42,0,0,1,.3,1.4l-.17,14.76c0,.24,0,.51-.07.79a4.63,4.63,0,0,1-.17.84,2,2,0,0,1-.33.66.7.7,0,0,1-.53.3.36.36,0,0,1-.4-.19,2.13,2.13,0,0,1-.25-.57c-.05-.23-.08-.46-.11-.7s0-.45,0-.62l.07-14.57a7.3,7.3,0,0,0-.07-.83,3.17,3.17,0,0,0-.24-.85,5.13,5.13,0,0,1-.44-1A.83.83,0,0,1,303.1,357.9Z" transform="translate(-269.05 -328.9)"/><path d="M309,364.88a4.39,4.39,0,0,1,2.43-2.7,5,5,0,0,1,2-.39,4.91,4.91,0,0,1,2,.39,4.5,4.5,0,0,1,1.51,1.09,5.42,5.42,0,0,1,.94,1.62,6,6,0,0,1,.33,2,6.15,6.15,0,0,1-.33,2,5,5,0,0,1-.94,1.61,4.35,4.35,0,0,1-1.51,1.08,5.08,5.08,0,0,1-2,.38,5.16,5.16,0,0,1-2-.38,4.44,4.44,0,0,1-1.51-1.08,4.64,4.64,0,0,1-.92-1.61,6.15,6.15,0,0,1-.33-2A6.07,6.07,0,0,1,309,364.88Zm2.35,4.35a2.82,2.82,0,0,0,4.19,0,4.11,4.11,0,0,0,0-4.65,2.79,2.79,0,0,0-4.19,0,4.16,4.16,0,0,0,0,4.65Zm10-11.5a1.5,1.5,0,0,1,.72.41,4.93,4.93,0,0,1,.78,1.23,3.5,3.5,0,0,1,.3,1.41L323,375.54c0,.24,0,.51-.08.8a6.52,6.52,0,0,1-.14.83,1.89,1.89,0,0,1-.34.68.68.68,0,0,1-.52.3.41.41,0,0,1-.44-.19,1.87,1.87,0,0,1-.26-.57,3.33,3.33,0,0,1-.16-.71c0-.25,0-.46,0-.64l.09-14.54a6.88,6.88,0,0,0-.06-.84,2.87,2.87,0,0,0-.22-.84c-.08-.15-.16-.3-.24-.47a3.28,3.28,0,0,1-.2-.52,1.22,1.22,0,0,1,0-.5.73.73,0,0,1,.23-.43A.82.82,0,0,1,321.41,357.73Z" transform="translate(-269.05 -328.9)"/></svg>