<svg id="Layer_1" data-name="Layer 1" xmlns="http://www.w3.org/2000/svg" viewBox="0 0 58 21.15"><title>intro_tx6</title><path d="M200.82,336.44a5.1,5.1,0,0,1-2.58-.92,2.72,2.72,0,0,1-1.1-2.37,2.91,2.91,0,0,1,.36-1.47,3,3,0,0,1,1-1.05,4.51,4.51,0,0,1,1.44-.62,7.27,7.27,0,0,1,1.77-.22,7.94,7.94,0,0,1,1.8.2,4.21,4.21,0,0,1,1.47.6,2.8,2.8,0,0,1,1,1,3,3,0,0,1,.38,1.53,2.72,2.72,0,0,1-1,2.32,4.92,4.92,0,0,1-2.47.95l-.05,2,1.56-.05,1.59-.05c.53,0,1,0,1.58-.06l1.59-.08h.55l.29,0h.28a.75.75,0,0,1,.66.25,1.13,1.13,0,0,1,.21.54.92.92,0,0,1-.24.74,1.1,1.1,0,0,1-.58.29l-.17,0-.19,0-.3,0a2.76,2.76,0,0,0-.44,0l-4,.14-3.87.1-3.88.1c-1.3,0-2.63.06-4,.07a1.19,1.19,0,0,1-.7-.15,1.31,1.31,0,0,1-.48-.45,1.2,1.2,0,0,1-.23-.56.83.83,0,0,1,.11-.54.46.46,0,0,1,.35-.22h.49l.55.11a2.72,2.72,0,0,0,.55.06c1.11,0,2.24,0,3.39,0s2.3,0,3.45-.08Zm-3.44-9.17c1,.05,2.21.07,3.56.05s2.83-.09,4.46-.21l.31,0,.39,0,.37,0h.32a.75.75,0,0,1,.66.25,1.13,1.13,0,0,1,.21.54.88.88,0,0,1-.23.73,1,1,0,0,1-.57.28.68.68,0,0,1-.21,0h-1.18l-2.22.06-2.12.06c-.71,0-1.42.05-2.14.06h-2.25a1.37,1.37,0,0,1-.7-.17,1.32,1.32,0,0,1-.5-.43,1.1,1.1,0,0,1-.23-.55.76.76,0,0,1,.11-.53.41.41,0,0,1,.34-.21,2.26,2.26,0,0,1,.52,0l.55.1A2.72,2.72,0,0,0,197.38,327.27Zm.84-3a.45.45,0,0,1,.4-.12,1.37,1.37,0,0,1,.44.09,8.08,8.08,0,0,0,1.85.57,10.56,10.56,0,0,0,3,0,1.08,1.08,0,0,1,.66.09.64.64,0,0,1,.3.37.72.72,0,0,1-.19.6,2.19,2.19,0,0,1-.48.41,2,2,0,0,1-.77.23,7.65,7.65,0,0,1-.89.06c-.53,0-1.15,0-1.87-.09a4.6,4.6,0,0,1-1.87-.51,1.39,1.39,0,0,1-.69-.83A.77.77,0,0,1,198.22,324.23Zm3.46,10.58a4.05,4.05,0,0,0,2-.42,1.32,1.32,0,0,0,.72-1.21,1.44,1.44,0,0,0-.7-1.31,4,4,0,0,0-2-.42,3.25,3.25,0,0,0-2,.5,1.55,1.55,0,0,0-.64,1.23,1.34,1.34,0,0,0,.7,1.22A3.8,3.8,0,0,0,201.68,334.81Z" transform="translate(-191.97 -322.9)"/><path d="M212.72,326.31a.39.39,0,0,1,.17-.21,1,1,0,0,1,.29-.12,2.21,2.21,0,0,1,.39,0,3.37,3.37,0,0,0,.52,0l1.1-.08,1.44-.09,1.59-.15c.52,0,1-.11,1.46-.19l.52,0a1.17,1.17,0,0,1,.51.16,1.92,1.92,0,0,1,.51.48.73.73,0,0,1,.14.6,11.77,11.77,0,0,1-1.13,2.85A16.6,16.6,0,0,1,218.6,332a15.94,15.94,0,0,1-1.87,1.89A9.54,9.54,0,0,1,215,335a3.48,3.48,0,0,1-.59.21,1,1,0,0,1-.66-.07.61.61,0,0,1-.46-.44c-.06-.24,0-.45.34-.64.73-.53,1.41-1.06,2-1.58a11.23,11.23,0,0,0,1.66-1.78l-1.41.14-1.25.12a1.67,1.67,0,0,1-.74,0,1.82,1.82,0,0,1-.63-.29,1.24,1.24,0,0,1-.38-.45.7.7,0,0,1,0-.53.43.43,0,0,1,.17-.22,1.1,1.1,0,0,1,.29-.12l.4,0a3.36,3.36,0,0,0,.51,0l.77-.05,1-.05,1.17-.08c.4,0,.8-.06,1.18-.11.15-.29.28-.59.41-.9s.26-.64.39-1l-1.18.14-1.2.12-1.21.13-1.09.11a1.72,1.72,0,0,1-.75,0,1.87,1.87,0,0,1-.62-.29,1.14,1.14,0,0,1-.39-.46A.69.69,0,0,1,212.72,326.31Zm4.1,13.56a3.72,3.72,0,0,1,.39-1.72,3.87,3.87,0,0,1,1-1.32,4.5,4.5,0,0,1,1.54-.84,5.81,5.81,0,0,1,1.87-.29,5.73,5.73,0,0,1,1.85.29,4.5,4.5,0,0,1,1.54.84,3.84,3.84,0,0,1,1.06,1.3,4,4,0,0,1,0,3.5,4.23,4.23,0,0,1-1.06,1.32,4.81,4.81,0,0,1-1.54.81,6,6,0,0,1-1.85.29,5.53,5.53,0,0,1-1.87-.26,4.87,4.87,0,0,1-1.54-.84,4.06,4.06,0,0,1-1-1.32A3.86,3.86,0,0,1,216.82,339.87Zm2,0a2.33,2.33,0,0,0,.76,1.71,2.86,2.86,0,0,0,2.12.72,3,3,0,0,0,2.11-.73,2.25,2.25,0,0,0,0-3.39,2.91,2.91,0,0,0-2.11-.73,2.94,2.94,0,0,0-2.12.72A2.26,2.26,0,0,0,218.79,339.87ZM224,323.1a.8.8,0,0,1,.79-.16,1.6,1.6,0,0,1,.72.42,4.81,4.81,0,0,1,.78,1.24,3.42,3.42,0,0,1,.3,1.4l-.07,2.62,1-.06,1.06-.09h1.13a.84.84,0,0,1,.65.3,1,1,0,0,1,.16.54.86.86,0,0,1-.27.72,1.32,1.32,0,0,1-.61.26.56.56,0,0,1-.17,0l-.19,0-.28-.05-.44,0-1,.05-1.07,0-.07,2.81c0,.24,0,.5-.08.79a7.36,7.36,0,0,1-.14.84,1.87,1.87,0,0,1-.34.66.74.74,0,0,1-.52.3.42.42,0,0,1-.44-.19,1.82,1.82,0,0,1-.26-.58,3.15,3.15,0,0,1-.16-.69q0-.36,0-.63l.09-6.86a7,7,0,0,0-.06-.83,2.85,2.85,0,0,0-.22-.85,5.89,5.89,0,0,1-.42-1A.79.79,0,0,1,224,323.1Z" transform="translate(-191.97 -322.9)"/><path d="M232.9,338.29c1.22,0,2.46,0,3.71,0l3.78-.07,3.79-.15,3.8-.14h.55l.29,0h.28a.75.75,0,0,1,.66.25,1.13,1.13,0,0,1,.21.54.92.92,0,0,1-.24.74,1.1,1.1,0,0,1-.58.29l-.17,0-.19,0-.3,0a2.76,2.76,0,0,0-.44,0l-4.05.14-3.87.1-3.88.1c-1.3,0-2.63.06-4,.07a1.19,1.19,0,0,1-.7-.15,1.31,1.31,0,0,1-.48-.45,1.2,1.2,0,0,1-.23-.56.83.83,0,0,1,.11-.54.46.46,0,0,1,.35-.22h.49l.55.11A2.72,2.72,0,0,0,232.9,338.29Zm9.2-10.66a8.81,8.81,0,0,1-.27,1.07,7.49,7.49,0,0,1-.41,1c.9.56,1.81,1.19,2.74,1.9a14.44,14.44,0,0,1,2.33,2.16.73.73,0,0,1,.08.54.79.79,0,0,1-.27.49.89.89,0,0,1-.56.25.64.64,0,0,1-.5-.2A25.9,25.9,0,0,0,242.9,333a19.86,19.86,0,0,0-2.53-1.54,12.17,12.17,0,0,1-2,2.15,10.27,10.27,0,0,1-2.29,1.47,1.42,1.42,0,0,1-.59.17,1.2,1.2,0,0,1-.64-.14.53.53,0,0,1-.4-.45c0-.21.09-.42.38-.61a16.41,16.41,0,0,0,3.34-2.84,8.08,8.08,0,0,0,1.84-3.37,6.16,6.16,0,0,0,.16-.9c0-.27.05-.5.08-.69a1.71,1.71,0,0,1,.11-.47.57.57,0,0,1,.28-.27.62.62,0,0,1,.62,0,1.81,1.81,0,0,1,.51.52,2.89,2.89,0,0,1,.31.79A2.42,2.42,0,0,1,242.1,327.63Z" transform="translate(-191.97 -322.9)"/></svg>