<svg xmlns="http://www.w3.org/2000/svg" xmlns:xlink="http://www.w3.org/1999/xlink" width="100" height="100" viewBox="0 0 100 100">
  <defs>
    <clipPath id="clip-path">
      <rect id="사각형_137" data-name="사각형 137" width="100" height="100" transform="translate(703 933)" fill="#fff" stroke="#707070" stroke-width="1"/>
    </clipPath>
  </defs>
  <g id="마스크_그룹_10" data-name="마스크 그룹 10" transform="translate(-703 -933)" clip-path="url(#clip-path)">
    <path id="ferris-wheel_13381358" d="M11.373,82.692A35.98,35.98,0,0,1,3.69,87.877a.416.416,0,0,0-.115.656c8.206,8.783,26.994,8.783,35.2,0a.416.416,0,0,0-.115-.656,35.9,35.9,0,0,1-7.683-5.185.416.416,0,0,1,.1-.687,15.729,15.729,0,0,0,4.758-3.358.415.415,0,0,0-.112-.656,29.642,29.642,0,0,1-6.792-4.7.415.415,0,0,1,.06-.656,9.715,9.715,0,0,0,1.688-1.35.415.415,0,0,0-.1-.662A18.979,18.979,0,0,1,25.5,66.844a.417.417,0,0,1,.129-.667A7.4,7.4,0,0,0,27.7,64.808a.416.416,0,0,0-.09-.669,13.927,13.927,0,0,1-6.069-6.448.416.416,0,0,0-.74,0,13.948,13.948,0,0,1-6.069,6.448.416.416,0,0,0-.09.669,7.512,7.512,0,0,0,2.069,1.369.416.416,0,0,1,.129.667,18.946,18.946,0,0,1-5.075,3.775.415.415,0,0,0-.1.662,9.715,9.715,0,0,0,1.688,1.35.415.415,0,0,1,.06.656,29.642,29.642,0,0,1-6.792,4.7.415.415,0,0,0-.113.656A15.729,15.729,0,0,0,11.269,82a.415.415,0,0,1,.1.688ZM67.119,33.371a8.359,8.359,0,0,1,3.746,1.552L83.519,22.269a5.217,5.217,0,0,1-.371-1.94V17.944a5.181,5.181,0,0,1,.252-1.6,30.645,30.645,0,0,0-12.269-5.021,5.3,5.3,0,0,1-4.01,4.79v17.26Zm5.515,3.321,12.36-12.36a5.24,5.24,0,0,0,6.517.263,30.67,30.67,0,0,1,4.6,11.135,5.3,5.3,0,0,0-3.44,4.71H74.185a8.359,8.359,0,0,0-1.552-3.746Zm1.552,6.246a8.359,8.359,0,0,1-1.552,3.746l12.36,12.36a5.24,5.24,0,0,1,6.517-.262,30.664,30.664,0,0,0,4.531-10.808,5.293,5.293,0,0,1-3.379-4.917v-.119Zm-3.321,5.515L83.519,61.106a5.217,5.217,0,0,0-.371,1.94v2.385a5.181,5.181,0,0,0,.252,1.6,30.858,30.858,0,0,1-5.275,2.935l-7.74-21.187q.247-.156.481-.331ZM68.1,49.8l7.7,21.071a30.59,30.59,0,0,1-4.669,1.188,5.3,5.3,0,0,0-4.01-4.79V50.006A8.042,8.042,0,0,0,68.1,49.8Zm-3.481.208a8.043,8.043,0,0,1-.981-.208l-7.7,21.071a30.528,30.528,0,0,0,4.669,1.188,5.3,5.3,0,0,1,4.01-4.79Zm-3.267-1.221-7.74,21.187a30.717,30.717,0,0,1-5.275-2.935,5.244,5.244,0,0,0,.252-1.6V63.048a5.233,5.233,0,0,0-.371-1.94L60.873,48.454c.156.115.317.227.481.331Zm-2.248-2.1-12.36,12.36a5.24,5.24,0,0,0-6.517-.262A30.664,30.664,0,0,1,35.7,47.977a5.293,5.293,0,0,0,3.379-4.917v-.119H57.552A8.359,8.359,0,0,0,59.1,46.687Zm-1.552-6.246A8.359,8.359,0,0,1,59.1,36.7l-12.36-12.36a5.24,5.24,0,0,1-6.517.263,30.67,30.67,0,0,0-4.6,11.135,5.294,5.294,0,0,1,3.44,4.71H57.552Zm3.321-5.515L48.219,22.273a5.217,5.217,0,0,0,.371-1.94V17.948a5.181,5.181,0,0,0-.252-1.6,30.645,30.645,0,0,1,12.269-5.021,5.3,5.3,0,0,0,4.01,4.79v17.26a8.359,8.359,0,0,0-3.746,1.552Zm5,3.456a3.308,3.308,0,1,1-3.308,3.308A3.308,3.308,0,0,1,65.869,38.383ZM43.319,98.154l9.435-25.829a33.445,33.445,0,0,1-5.727-3.154,5.265,5.265,0,0,1-8.979-3.737V63.048a5.227,5.227,0,0,1,.515-2.265A33.14,33.14,0,0,1,33.208,48.3a5.291,5.291,0,0,1-4.677-5.237V40.675a5.291,5.291,0,0,1,4.606-5.229A33.172,33.172,0,0,1,38.563,22.6a5.234,5.234,0,0,1-.515-2.265V17.95a5.265,5.265,0,0,1,8.979-3.738A33.135,33.135,0,0,1,60.6,8.792V8.608a5.271,5.271,0,1,1,10.542,0v.183A33.135,33.135,0,0,1,84.71,14.212,5.265,5.265,0,0,1,93.69,17.95v2.385a5.22,5.22,0,0,1-.515,2.265A33.159,33.159,0,0,1,98.6,35.446a5.29,5.29,0,0,1,4.606,5.229V43.06A5.29,5.29,0,0,1,98.529,48.3a33.14,33.14,0,0,1-5.354,12.485,5.234,5.234,0,0,1,.515,2.265v2.385a5.265,5.265,0,0,1-8.979,3.737,33.149,33.149,0,0,1-5.727,3.154l9.435,25.829h2.06a2.714,2.714,0,0,1,2.708,2.708v2.058a.418.418,0,0,1-.417.417H38.965a.418.418,0,0,1-.417-.417v-2.058a2.714,2.714,0,0,1,2.708-2.708h2.06Zm42.448,0L76.658,73.219a33.063,33.063,0,0,1-5.517,1.371v.183a5.271,5.271,0,0,1-10.542,0V74.59a33.065,33.065,0,0,1-5.517-1.371L45.975,98.154H85.769Zm-62.21-.615v5.381a.418.418,0,0,1-.417.417H19.217a.418.418,0,0,1-.417-.417V97.54A33.555,33.555,0,0,0,23.556,97.54Z" transform="translate(699.666 929.662)" fill-rule="evenodd"/>
  </g>
</svg>
