<svg xmlns="http://www.w3.org/2000/svg" xmlns:xlink="http://www.w3.org/1999/xlink" width="100" height="100" viewBox="0 0 100 100">
  <defs>
    <clipPath id="clip-path">
      <rect id="사각형_140" data-name="사각형 140" width="100" height="100" transform="translate(889 748)" fill="#fff" stroke="#707070" stroke-width="1"/>
    </clipPath>
  </defs>
  <g id="마스크_그룹_12" data-name="마스크 그룹 12" transform="translate(-889 -748)" clip-path="url(#clip-path)">
    <g id="carousel_2740118" transform="translate(886.541 745.541)">
      <path id="패스_300" data-name="패스 300" d="M34.73,80.991c.5-.28.6-1.009.347-2L32.359,80.5a2.331,2.331,0,0,0,2.37.5Z"/>
      <path id="패스_301" data-name="패스 301" d="M22.951,60.434V48.361H19.672V63.968c.639,0,1.283.028,1.922.085a15.019,15.019,0,0,1,1.357-3.619Z"/>
      <path id="패스_302" data-name="패스 302" d="M11.927,80.991A2.338,2.338,0,0,0,14.3,80.5L11.58,78.989C11.325,79.983,11.43,80.711,11.927,80.991Z"/>
      <path id="패스_303" data-name="패스 303" d="M37.693,58.2a11.5,11.5,0,0,0,1.468-.242,13.441,13.441,0,0,1-1.318-1.7,2.9,2.9,0,0,0-3.548-1.137A8.335,8.335,0,0,1,37.693,58.2Z"/>
      <path id="패스_304" data-name="패스 304" d="M19.672,76.481v9.584h3.279V76.242h-2.5A1.5,1.5,0,0,0,19.672,76.481Z"/>
      <path id="패스_305" data-name="패스 305" d="M18.852,65.641a.121.121,0,0,1-.015,0,9.48,9.48,0,0,0-1.625.25v2.145a1.641,1.641,0,0,0,1.639,1.639h4.1a1.641,1.641,0,0,0,1.639-1.639v-1.9a24.746,24.746,0,0,0-5.714-.493C18.868,65.637,18.861,65.641,18.852,65.641Z"/>
      <path id="패스_306" data-name="패스 306" d="M26.167,64.746a.517.517,0,0,0,.052-.144c.672-3.3,1.234-5.628,2.557-7.489a8.551,8.551,0,0,0-4.247,3.811c-.009.022-.021.041-.032.062a13.241,13.241,0,0,0-1.269,3.264c.885.128,1.74.281,2.529.424Z"/>
      <path id="패스_307" data-name="패스 307" d="M82.787,33.607c2.888,0,4.28,1.439,5.507,2.709,1.146,1.185,2.136,2.209,4.329,2.209a7.341,7.341,0,0,0,4.69-1.93C83.464,29.763,69.186,18.348,59.475,9.79a2.474,2.474,0,0,1-.458.046H57.948C61.23,15.378,70.453,26.3,79.5,34.5a5.674,5.674,0,0,1,3.283-.9Z"/>
      <path id="패스_308" data-name="패스 308" d="M63.115,33.607c2.851,0,4.455,1.416,5.87,2.664,1.37,1.21,2.554,2.254,4.785,2.254,2.147,0,2.907-.949,3.868-2.152.2-.254.417-.513.643-.768-9.573-8.7-19.325-20.413-22.211-25.769H55.012C55.8,16.722,58.5,24.293,61.9,33.709a7.617,7.617,0,0,1,1.214-.1Z"/>
      <path id="패스_309" data-name="패스 309" d="M7.824,64.593c-.024.017-.048.033-.073.048-.007,0-1.766,1.122-2.894,5.242a12.343,12.343,0,0,1-1.938,3.6,3.682,3.682,0,0,0,2.611.086c1.22-.489,2.116-1.869,2.659-4.1a3.357,3.357,0,0,1,1.93-2.116,2.991,2.991,0,0,1,2.269.2,6.413,6.413,0,0,1,1.149-1.507C11.984,64.429,9.88,63.111,7.824,64.593Z"/>
      <path id="패스_310" data-name="패스 310" d="M26.636,35.6c.226.255.44.514.643.768.961,1.2,1.721,2.152,3.868,2.152,2.231,0,3.415-1.044,4.785-2.254,1.416-1.248,3.02-2.664,5.87-2.664a7.6,7.6,0,0,1,1.213.1c3.4-9.416,6.1-16.987,6.889-23.873H48.847C45.961,15.192,36.209,26.908,26.636,35.6Z"/>
      <path id="패스_311" data-name="패스 311" d="M52.425,38.525a.471.471,0,0,1,.068,0c2.214-.008,3.393-1.048,4.757-2.253a11.1,11.1,0,0,1,3.068-2.121c-3.458-9.57-6.175-17.23-6.954-24.314H51.555c-.78,7.1-3.5,14.767-6.954,24.314a11.14,11.14,0,0,1,3.068,2.121C49.033,37.476,50.211,38.516,52.425,38.525Z"/>
      <path id="패스_312" data-name="패스 312" d="M45.9,8.2H59.016a.82.82,0,0,0,0-1.639H45.9a.82.82,0,0,0,0,1.639Z"/>
      <path id="패스_313" data-name="패스 313" d="M15.222,66.758a5.5,5.5,0,0,0-2.143,3.83,43.635,43.635,0,0,1-.837,6.652.824.824,0,0,1-.066.184l-.007.016,3.192,1.773,1.975-2.644A3.882,3.882,0,0,1,20.452,74.6H26.2a3.918,3.918,0,0,1,3.141,2l1.955,2.606,3.192-1.773-.007-.014a55.451,55.451,0,0,1-1.691-8.54V65.574a1.726,1.726,0,0,1,.667-1.476,1.33,1.33,0,0,1,1.276-.1.813.813,0,0,1,.152.08l2.342,1.57A1.622,1.622,0,0,0,39.117,65a1.713,1.713,0,0,0-.38-2.143.509.509,0,0,1-.043-.051,18.065,18.065,0,0,1-1.711-2.585c-.755-1.557-2.294-3.345-3.59-3.7a.819.819,0,0,1-.474-.346c-.774-1.193-1.171-1.267-1.175-1.268a3.508,3.508,0,0,0-.641,1.8.819.819,0,0,1-.228.436c-1.584,1.584-2.2,3.59-3.048,7.78a1.7,1.7,0,0,1-1.6,1.47v1.634a3.282,3.282,0,0,1-3.279,3.279h-4.1a3.282,3.282,0,0,1-3.279-3.279V66.54c-.119.07-.239.139-.352.218Z"/>
      <path id="패스_314" data-name="패스 314" d="M3.279,40.164a2.453,2.453,0,0,1,.81,4.77c.447,1.642,1.085,1.787,1.649,1.787H99.18c.639,0,1.2-.143,1.648-1.787a2.453,2.453,0,0,1,.811-4.77,2.242,2.242,0,0,1,.248.029l.571-2.572a1.5,1.5,0,0,0-.773-1.444,1.909,1.909,0,0,0-1.961.5l-.131.116c-1.6,1.422-3.791,3.37-6.97,3.37-2.888,0-4.28-1.439-5.507-2.709-1.146-1.185-2.136-2.209-4.329-2.209-2.147,0-2.907.949-3.868,2.152a5.875,5.875,0,0,1-5.148,2.766c-2.851,0-4.455-1.416-5.87-2.664-1.37-1.21-2.554-2.254-4.785-2.254S59.7,36.29,58.334,37.5c-1.413,1.249-3.016,2.665-5.866,2.665H52.45c-2.851,0-4.452-1.416-5.866-2.665-1.369-1.209-2.551-2.253-4.78-2.253S38.389,36.29,37.018,37.5c-1.416,1.248-3.02,2.664-5.87,2.664A5.875,5.875,0,0,1,26,37.4c-.961-1.2-1.721-2.152-3.868-2.152-2.193,0-3.183,1.024-4.329,2.209-1.228,1.27-2.62,2.709-5.507,2.709-3.18,0-5.37-1.948-6.97-3.369l-.131-.116a1.908,1.908,0,0,0-1.961-.5,1.5,1.5,0,0,0-.773,1.444l.571,2.572a2.062,2.062,0,0,1,.248-.03Zm79.508-.82A2.459,2.459,0,1,1,80.328,41.8,2.459,2.459,0,0,1,82.787,39.344Zm-19.672,0A2.459,2.459,0,1,1,60.656,41.8,2.459,2.459,0,0,1,63.115,39.344Zm-21.311,0A2.459,2.459,0,1,1,39.344,41.8,2.459,2.459,0,0,1,41.8,39.344Zm-19.672,0A2.459,2.459,0,1,1,19.672,41.8,2.459,2.459,0,0,1,22.131,39.344Z"/>
      <path id="패스_315" data-name="패스 315" d="M16.624,36.316c1.228-1.27,2.62-2.709,5.507-2.709a5.669,5.669,0,0,1,3.282.9C34.465,26.3,43.688,15.378,46.97,9.836H45.9a2.421,2.421,0,0,1-.459-.047C35.732,18.347,21.454,29.763,7.6,36.594a7.341,7.341,0,0,0,4.69,1.93C14.488,38.525,15.478,37.5,16.624,36.316Z"/>
      <path id="패스_316" data-name="패스 316" d="M55.78,3.538c-.316-1.079-.326-1.079-.861-1.079H50c-.248,0-.53,0-.856,1.061l-.466,1.4h7.561Z"/>
      <path id="패스_317" data-name="패스 317" d="M97.575,90.4A3.76,3.76,0,0,0,94.262,87.7H10.656a3.757,3.757,0,0,0-3.311,2.684L5.2,97.541H99.718Z"/>
      <path id="패스_318" data-name="패스 318" d="M75.864,66.046c-1.553-1.616-3.657-2.933-5.713-1.453-.024.017-.048.033-.073.048-.007,0-1.766,1.122-2.894,5.242a12.343,12.343,0,0,1-1.938,3.6,3.681,3.681,0,0,0,2.611.086c1.22-.489,2.116-1.869,2.659-4.1a3.357,3.357,0,0,1,1.93-2.116,2.991,2.991,0,0,1,2.269.2,6.413,6.413,0,0,1,1.149-1.507Z"/>
      <path id="패스_319" data-name="패스 319" d="M82.78,76.242a1.5,1.5,0,0,0-.813.257v9.567h3.279V76.242Z"/>
      <path id="패스_320" data-name="패스 320" d="M100.02,58.206a11.354,11.354,0,0,0,1.468-.243,13.516,13.516,0,0,1-1.318-1.7,2.9,2.9,0,0,0-3.548-1.137,8.347,8.347,0,0,1,3.4,3.084Z"/>
      <path id="패스_321" data-name="패스 321" d="M100.82,99.18H4.1a1.639,1.639,0,1,0,0,3.279H100.82a1.639,1.639,0,1,0,0-3.279Z"/>
      <path id="패스_322" data-name="패스 322" d="M88.5,64.746a.517.517,0,0,0,.052-.144c.672-3.3,1.234-5.628,2.557-7.489-1.929.777-4.4,2.656-5.548,7.136.885.128,1.741.281,2.529.424Z"/>
      <path id="패스_323" data-name="패스 323" d="M101.446,65a1.713,1.713,0,0,0-.38-2.143.507.507,0,0,1-.043-.051,18.063,18.063,0,0,1-1.711-2.585c-.756-1.557-2.3-3.345-3.59-3.7a.819.819,0,0,1-.474-.346c-.774-1.193-1.171-1.267-1.175-1.268a3.507,3.507,0,0,0-.641,1.8.819.819,0,0,1-.228.436c-1.584,1.584-2.2,3.59-3.048,7.78a1.7,1.7,0,0,1-1.6,1.47v1.634a3.282,3.282,0,0,1-3.279,3.279h-4.1A3.282,3.282,0,0,1,77.9,68.033V66.54c-.119.07-.239.139-.352.218a5.5,5.5,0,0,0-2.143,3.83,43.635,43.635,0,0,1-.837,6.652.824.824,0,0,1-.066.184l-.007.016,3.192,1.773,1.975-2.644a5.607,5.607,0,0,1,.881-1.049.755.755,0,0,1,.065-.061,3.254,3.254,0,0,1,2.17-.858h5.743a3.918,3.918,0,0,1,3.141,2l1.955,2.606,3.192-1.773-.007-.014a55.451,55.451,0,0,1-1.691-8.54V65.574a1.726,1.726,0,0,1,.667-1.476,1.33,1.33,0,0,1,1.276-.1.813.813,0,0,1,.152.08l2.342,1.57A1.623,1.623,0,0,0,101.446,65Z"/>
      <path id="패스_324" data-name="패스 324" d="M97.4,78.986,94.686,80.5a2.329,2.329,0,0,0,2.37.5c.5-.28.6-1.009.347-2Z"/>
      <path id="패스_325" data-name="패스 325" d="M74.255,80.991a2.338,2.338,0,0,0,2.375-.49l-2.722-1.512C73.652,79.983,73.757,80.711,74.255,80.991Z"/>
      <path id="패스_326" data-name="패스 326" d="M46.721,79.821,58.2,85.559V80.015L46.721,74.277Z"/>
      <path id="패스_327" data-name="패스 327" d="M46.721,72.444,58.2,78.182v-3.9L46.721,68.539Z"/>
      <path id="패스_328" data-name="패스 328" d="M46.721,86.066h8.823l-8.823-4.411Z"/>
      <path id="패스_329" data-name="패스 329" d="M46.721,59.33,58.2,65.067v-3.9L46.721,55.425Z"/>
      <path id="패스_330" data-name="패스 330" d="M46.721,48.361v5.231L58.2,59.33V53.785L47.348,48.361Z"/>
      <path id="패스_331" data-name="패스 331" d="M58.2,48.361H51.013L58.2,51.952Z"/>
      <path id="패스_332" data-name="패스 332" d="M81.148,65.642l-.011,0a9.426,9.426,0,0,0-1.6.248v2.145a1.641,1.641,0,0,0,1.639,1.639h4.1a1.641,1.641,0,0,0,1.639-1.639v-1.9a24.589,24.589,0,0,0-5.752-.492C81.16,65.639,81.154,65.642,81.148,65.642Z"/>
      <path id="패스_333" data-name="패스 333" d="M46.721,66.707,58.2,72.444V66.9L46.721,61.162Z"/>
      <path id="패스_334" data-name="패스 334" d="M85.246,60.493V48.361H81.967V63.969c.65,0,1.3.026,1.954.085a15.1,15.1,0,0,1,1.325-3.561Z"/>
    </g>
  </g>
</svg>
