<svg id="Layer_1" data-name="Layer 1" xmlns="http://www.w3.org/2000/svg" viewBox="0 0 87.58 87.58"><defs><style>.cls-1{fill:#7a4795;}</style></defs><title>big</title><path class="cls-1" d="M416.6,283.68a1.12,1.12,0,0,0-.52-1.33,1.46,1.46,0,0,0-1-.13,8.37,8.37,0,0,0-1.51.36,14.71,14.71,0,0,0-1.71.7,11.47,11.47,0,0,0-1.64,1,2.11,2.11,0,0,1,.54.18,2.05,2.05,0,0,1,.58.37,1.56,1.56,0,0,1,.36.53.67.67,0,0,1,0,.57c-.31.6-.63,1.26-.95,2s-.65,1.43-1,2.16-.62,1.45-.92,2.15l-.81,1.87q.44-.46,1.41-1.41c.65-.62,1.35-1.32,2.1-2.08s1.51-1.58,2.25-2.43a24.37,24.37,0,0,0,1.88-2.42A6.16,6.16,0,0,0,416.6,283.68Z" transform="translate(-376.46 -254.51)"/><path class="cls-1" d="M427.2,308.72a13.76,13.76,0,0,0-1.13,1.44,2.65,2.65,0,0,0-.49,1,12.41,12.41,0,0,0,2.4-2.41,29.9,29.9,0,0,0,2.1-3.06l-1.42,1.44C428.14,307.68,427.66,308.2,427.2,308.72Z" transform="translate(-376.46 -254.51)"/><path class="cls-1" d="M434.24,292.61c-.13,0-.35.09-.67.36a11.65,11.65,0,0,0-1.42,1.46c-.47.56-.9,1.14-1.31,1.74s-.77,1.18-1.08,1.73a10.07,10.07,0,0,0-.69,1.44c0,.22,0,.32.15.32a1.57,1.57,0,0,0,.74-.43,11.06,11.06,0,0,0,1.18-1.19q.67-.75,1.44-1.74c.52-.66,1-1.36,1.5-2.11a2.86,2.86,0,0,0,.29-.66,2.05,2.05,0,0,0,.09-.63C434.44,292.73,434.37,292.63,434.24,292.61Z" transform="translate(-376.46 -254.51)"/><path class="cls-1" d="M420.25,254.51A43.8,43.8,0,1,0,464,298.3,43.8,43.8,0,0,0,420.25,254.51Zm3.26,35c.11-.37.22-.72.34-1s.24-.62.36-.89l.29-.61a.94.94,0,0,1,.79-.34,2.8,2.8,0,0,1,1.14.2,2.57,2.57,0,0,1,.92.57.55.55,0,0,1,.14.72c-.07.15-.19.36-.34.63l-.49.87-.5.88c-.17.29-.31.54-.43.76a.85.85,0,0,1-.63.32,2.33,2.33,0,0,1-.83-.09,1.91,1.91,0,0,1-.72-.38.58.58,0,0,1-.27-.54A7.82,7.82,0,0,1,423.51,289.53Zm18.87,6.5a3.34,3.34,0,0,1-.29.88,1.93,1.93,0,0,1-.67.77c-.91.56-1.78,1.12-2.61,1.7s-1.61,1.17-2.36,1.8a2.66,2.66,0,0,0-.75.93c-.46,1-1,2.09-1.68,3.31s-1.36,2.41-2.1,3.55a25.52,25.52,0,0,1-2.25,3,5.21,5.21,0,0,1-2.14,1.58,2.46,2.46,0,0,1-1.32-.07,4.44,4.44,0,0,1-1.62-.75,3.09,3.09,0,0,1-1.06-1.37,2,2,0,0,1,.32-1.87,15.71,15.71,0,0,1,2.27-2.76q1.44-1.43,2.88-2.64t2.58-2.16a6.25,6.25,0,0,0,1.31-1.3,14,14,0,0,0,.76-1.67c.24-.64.44-1.2.61-1.68l-1.14,1.37c-.42.5-.86,1-1.33,1.51s-.94,1-1.42,1.41a12.82,12.82,0,0,1-1.37,1.08,1.5,1.5,0,0,1-1,.14,4,4,0,0,1-1.24-.43,3.31,3.31,0,0,1-1-.81l-.08-.12c-.36.48-.72.94-1.09,1.36a5.27,5.27,0,0,1-1.71,1.4,2.25,2.25,0,0,1-1.08.11,3.53,3.53,0,0,1-1.16-.34,2.66,2.66,0,0,1-.9-.72,1.46,1.46,0,0,1-.32-1,11.61,11.61,0,0,1,.31-1.92,25.85,25.85,0,0,1,.72-2.56c.29-.89.62-1.76,1-2.63l-1,.31a13.93,13.93,0,0,0-1.8.76,11.09,11.09,0,0,1-1.17,3.63,23.59,23.59,0,0,1-2.37,3.78,28.15,28.15,0,0,1-3.22,3.55,25.83,25.83,0,0,1-3.75,2.9,8.28,8.28,0,0,1-3.35,1.38,3.31,3.31,0,0,1-2.35-.39,2.15,2.15,0,0,1-.87-1.86,5.72,5.72,0,0,1,1.1-3,22.85,22.85,0,0,1,2.52-3.09,41.4,41.4,0,0,1,3.2-3q1.69-1.43,3.41-2.61a31.83,31.83,0,0,1,3.11-1.94.76.76,0,0,0,.05-.29,2,2,0,0,0,0-.54,2.35,2.35,0,0,0-.2-.58.78.78,0,0,0-.43-.39,1.92,1.92,0,0,0-1.41.11,8.12,8.12,0,0,0-1.74,1,16.29,16.29,0,0,0-1.84,1.51c-.61.58-1.19,1.14-1.73,1.69s-1,1.07-1.42,1.55-.69.84-.86,1.08a1.24,1.24,0,0,1-.92.61,2.06,2.06,0,0,1-.85-.18,2,2,0,0,1-.79-.7,1.18,1.18,0,0,1-.07-1.06c.26-.84.63-1.89,1.1-3.15s1-2.55,1.49-3.85,1.06-2.58,1.59-3.8,1-2.22,1.33-3a24.35,24.35,0,0,0-3.31,3.13,14.72,14.72,0,0,0-2.06,2.92,3,3,0,0,0-.43,2.05c.15.5.65.7,1.51.58a1.1,1.1,0,0,1-.93.93,3,3,0,0,1-1.68-.14,3.77,3.77,0,0,1-1.56-1.14,2.81,2.81,0,0,1-.61-2.07,5.62,5.62,0,0,1,.84-2.41,16.43,16.43,0,0,1,2-2.7,25.27,25.27,0,0,1,2.79-2.64,26.16,26.16,0,0,1,3.22-2.27,16.57,16.57,0,0,1,3.31-1.53,8.5,8.5,0,0,1,3.06-.47,4.91,4.91,0,0,1,2.16.67,6.41,6.41,0,0,1,1.79,1.47,5.27,5.27,0,0,1,1,1.93,3,3,0,0,1-.05,2,7.77,7.77,0,0,1-1,1.78,16.71,16.71,0,0,1-1.27,1.57q-.67.72-1.32,1.29c-.43.39-.79.7-1.08.94a4.26,4.26,0,0,1,2.07.84,5.73,5.73,0,0,1,1.6,1.71l2.43-.86a9.35,9.35,0,0,1,2.09-.46,1.28,1.28,0,0,1,.47-.08,2.84,2.84,0,0,1,1.1.22,2.57,2.57,0,0,1,.9.57.63.63,0,0,1,.18.76,38.08,38.08,0,0,0-2.31,5.06,4.38,4.38,0,0,0-.39,2.35c.09.27.3.3.61.09a5.72,5.72,0,0,0,1.17-1.17,26.89,26.89,0,0,0,1.6-2.23l.22-.34a18.92,18.92,0,0,1,1.53-2.74,23.11,23.11,0,0,1,1.89-2.43,12.82,12.82,0,0,1,2-1.83,2.8,2.8,0,0,1,1.19-.54,2.12,2.12,0,0,1,1,.09,3.86,3.86,0,0,1,.92.48l.92.69c.09-.12.23-.31.41-.58a2.6,2.6,0,0,1,.41-.5,1.22,1.22,0,0,1,.81-.24,2.75,2.75,0,0,1,.94.22,2.24,2.24,0,0,1,.74.5.82.82,0,0,1,.25.63c-.1.51-.23,1.05-.4,1.64s-.34,1.18-.52,1.78-.36,1.18-.54,1.73-.33,1-.45,1.44c.89-.62,1.66-1.15,2.32-1.58s1.32-.84,2-1.23c.24-.12.41-.1.52.06A.88.88,0,0,1,442.38,296Z" transform="translate(-376.46 -254.51)"/><path class="cls-1" d="M408.41,303.23a25.07,25.07,0,0,0-2.48,2.77,7.39,7.39,0,0,0-1.37,2.52,7.46,7.46,0,0,0,1.44-.92c.57-.44,1.19-1,1.83-1.56s1.31-1.25,2-1.93,1.29-1.36,1.86-2,1-1.3,1.44-1.88a6.18,6.18,0,0,0,.77-1.4,30.91,30.91,0,0,0-2.57,1.87A38.49,38.49,0,0,0,408.41,303.23Z" transform="translate(-376.46 -254.51)"/></svg>