<svg id="Layer_1" data-name="Layer 1" xmlns="http://www.w3.org/2000/svg" viewBox="0 0 87.58 87.58"><defs><style>.cls-1{fill:#7a4795;}</style></defs><title>sale</title><path class="cls-1" d="M422,298c-.17-.05-.39.07-.65.36a10.27,10.27,0,0,0-1.53,1.87,21.48,21.48,0,0,0-1.23,2.13,17.35,17.35,0,0,0-.84,1.92,4.26,4.26,0,0,0-.33,1.32,11.33,11.33,0,0,0,1.07-1.06c.44-.5.9-1,1.38-1.64s.95-1.2,1.41-1.8.82-1.12,1.11-1.55a.88.88,0,0,0,.11-.5,1.63,1.63,0,0,0-.13-.67A.61.61,0,0,0,422,298Z" transform="translate(-377.14 -253.92)"/><path class="cls-1" d="M440.94,300.59a5.28,5.28,0,0,0,1-1.27,8.25,8.25,0,0,0,.72-1.64,8.61,8.61,0,0,0,.34-1.48,5.25,5.25,0,0,0-.92.95q-.55.71-1.08,1.5c-.35.53-.65,1-.9,1.48a2.79,2.79,0,0,0-.38.86A1.4,1.4,0,0,0,440.94,300.59Z" transform="translate(-377.14 -253.92)"/><path class="cls-1" d="M420.93,253.92a43.79,43.79,0,1,0,43.79,43.79A43.78,43.78,0,0,0,420.93,253.92Zm-8.7,31.55c-.12-.31-.44-.4-1-.27a7.11,7.11,0,0,0-1.86.87,19.23,19.23,0,0,0-2.28,1.67,22.87,22.87,0,0,0-2.25,2.14,17.21,17.21,0,0,0-1.79,2.29,5.05,5.05,0,0,0-.84,2.05,1.55,1.55,0,0,0,.66,1.49,10,10,0,0,0,2,1.16c.83.37,1.73.75,2.72,1.15a15,15,0,0,1,2.72,1.44,7.22,7.22,0,0,1,2,2.09,5,5,0,0,1,.68,3.08,4.08,4.08,0,0,1-.66,1.94,11,11,0,0,1-1.68,2.09,18.32,18.32,0,0,1-2.41,2,22.22,22.22,0,0,1-2.91,1.75,22.6,22.6,0,0,1-3.17,1.28,14.16,14.16,0,0,1-3.13.61,8.79,8.79,0,0,1-2.2-.11,4.86,4.86,0,0,1-1.51-.54,2.87,2.87,0,0,1-1.05-1.15,3.64,3.64,0,0,1-.32-1.53,6.75,6.75,0,0,1,.25-1.78,11.43,11.43,0,0,1,.69-1.87,19,19,0,0,1,1.71-3,17,17,0,0,1,2-2.37.61.61,0,0,1,.44-.13.8.8,0,0,1,.43.15.51.51,0,0,1,.23.3.23.23,0,0,1-.12.29,7,7,0,0,0-1.23,1.37,9.39,9.39,0,0,0-1,1.83,7.52,7.52,0,0,0-.56,1.93,3.21,3.21,0,0,0,.12,1.66,1.74,1.74,0,0,0,1,1,4,4,0,0,0,2.25,0,13.64,13.64,0,0,0,3-1.15,16.75,16.75,0,0,0,2.84-1.81,11.59,11.59,0,0,0,2.12-2.15,3.52,3.52,0,0,0,.83-2.08,2.43,2.43,0,0,0-.7-1.77,7.33,7.33,0,0,0-1.76-1.28,19.59,19.59,0,0,0-2.34-1c-.86-.29-1.67-.62-2.45-1a10.32,10.32,0,0,1-2.07-1.2,3.21,3.21,0,0,1-1.19-1.69,4.78,4.78,0,0,1,.31-3.12,13.17,13.17,0,0,1,2.07-3.44,18.75,18.75,0,0,1,3.2-3.08,12.85,12.85,0,0,1,3.69-2,6.62,6.62,0,0,1,3.49-.26,4.18,4.18,0,0,1,2.68,2.17,13.34,13.34,0,0,1,.67-1.23l.81-1.33a13.47,13.47,0,0,1,.77-1.15,3.06,3.06,0,0,1,.6-.65,1.23,1.23,0,0,1,1,0,4.76,4.76,0,0,1,1.35.68,3.49,3.49,0,0,1,1,1q.35.54-.09.87a12,12,0,0,0-1.54,1.74,29.05,29.05,0,0,0-1.71,2.52c-.57.93-1.1,1.89-1.61,2.88A29.33,29.33,0,0,0,414,293.7a10.7,10.7,0,0,0-.61,2.3,1.66,1.66,0,0,0,.27,1.39,1.07,1.07,0,0,1-.94.23,2.4,2.4,0,0,1-1.11-.5,3.61,3.61,0,0,1-.92-1.08,2.35,2.35,0,0,1-.27-1.49,10.8,10.8,0,0,1,.52-2.24c.28-.81.55-1.64.81-2.46a18.44,18.44,0,0,0,.6-2.38A3.77,3.77,0,0,0,412.23,285.47ZM432.46,310c0,.2.06.44.09.74s.09.66.16,1.06c.19.82.82,1.24,1.87,1.26a1.74,1.74,0,0,1-1.18.43,1.13,1.13,0,0,1-.38,0l-.6,0a3.3,3.3,0,0,1-1.8-.9,4.81,4.81,0,0,1-1.58-2.74c0-.12,0-.25-.05-.39s0-.29,0-.44a14.48,14.48,0,0,1,.23-3.13c.11-.64.26-1.32.45-2.05-.18.26-.34.53-.52.79a24.81,24.81,0,0,1-2,2.54,6.72,6.72,0,0,1-2.05,1.6,1.94,1.94,0,0,1-1.14.17,2.93,2.93,0,0,1-1.08-.4,3.16,3.16,0,0,1-.83-.76,1.71,1.71,0,0,1-.37-.88,5,5,0,0,1,.14-1.58c.14-.67.3-1.29.47-1.84-.29.34-.6.73-.92,1.17s-.68.92-1.06,1.42-.79,1-1.21,1.52a17.58,17.58,0,0,1-1.31,1.4,1.15,1.15,0,0,1-1,.25,4,4,0,0,1-1.32-.38,3.77,3.77,0,0,1-1.13-.79,1.2,1.2,0,0,1-.41-1,11.52,11.52,0,0,1,.64-2.91,21.64,21.64,0,0,1,1.32-3,19.23,19.23,0,0,1,1.73-2.71,12.42,12.42,0,0,1,1.89-2.06,2.61,2.61,0,0,1,1.26-.61,2.33,2.33,0,0,1,1.11.13,4.7,4.7,0,0,1,1.08.57c.36.25.75.5,1.15.74a11.8,11.8,0,0,0,.78-.92c.25-.32.52-.64.81-.95a.8.8,0,0,1,.81-.25,2.68,2.68,0,0,1,1.06.39,2.75,2.75,0,0,1,.81.78.71.71,0,0,1,.05.84c-.81,1.4-1.47,2.63-2,3.71a23.69,23.69,0,0,0-1.08,2.74,5.7,5.7,0,0,0-.32,1.69c0,.38.1.58.27.58q.72,0,2.19-1.95a53.07,53.07,0,0,0,3.64-5.61.44.44,0,0,1,.4-.13l.32-.83q.93-2.28,2.09-4.59a33.87,33.87,0,0,1,2.21-3.83,13.48,13.48,0,0,1,2-2.43,1,1,0,0,1,.54-.18,2.39,2.39,0,0,1,.7.14,3.51,3.51,0,0,1,.92.54l.22.11c.64.38,1,.77,1,1.15a.53.53,0,0,1-.22.43,20.49,20.49,0,0,0-3.7,4.76,40.61,40.61,0,0,0-3,6.37,32.88,32.88,0,0,0-1.84,6.41A16.45,16.45,0,0,0,432.46,310Zm15.26-10.15a13.52,13.52,0,0,1-1.31,2.79,17.6,17.6,0,0,1-1.93,2.61,21.57,21.57,0,0,1-2.26,2.23,15.18,15.18,0,0,1-2.34,1.66,2,2,0,0,1-1.16.22,4.41,4.41,0,0,1-1.22-.35,6.37,6.37,0,0,1-1.12-.63,7,7,0,0,1-.82-.68,2.94,2.94,0,0,1-.76-1.93,8.72,8.72,0,0,1,.27-2.61,16.72,16.72,0,0,1,1-2.91,21.49,21.49,0,0,1,1.53-2.85,16.32,16.32,0,0,1,1.78-2.34,7.55,7.55,0,0,1,1.76-1.47,2.29,2.29,0,0,1,.94-.27,2.41,2.41,0,0,1,.9.14,4.92,4.92,0,0,1,.95.47l1.1.67a1.39,1.39,0,0,1,.79,1.36,5.87,5.87,0,0,1-.3,1.41,13.8,13.8,0,0,1-.87,2.1,10.8,10.8,0,0,1-1.36,2.06,4,4,0,0,1-1.82,1.27,3.36,3.36,0,0,1-1.26.11,4.53,4.53,0,0,1-1.19-.36,8.46,8.46,0,0,0-.4,1.06,10.35,10.35,0,0,0-.32,1.42,5.86,5.86,0,0,0-.07,1.28c0,.38.16.59.43.63a2.51,2.51,0,0,0,1.64-.61,15.42,15.42,0,0,0,2.21-1.89,27.76,27.76,0,0,0,2.27-2.64,18.3,18.3,0,0,0,1.8-2.89.41.41,0,0,1,.38-.1,1.07,1.07,0,0,1,.45.18.85.85,0,0,1,.32.38A.49.49,0,0,1,447.72,299.8Z" transform="translate(-377.14 -253.92)"/></svg>